<mxfile host="app.diagrams.net" modified="2021-05-16T21:11:44.638Z" agent="5.0 (Windows NT 10.0; Win64; x64) AppleWebKit/537.36 (KHTML, like Gecko) Chrome/90.0.4430.93 Safari/537.36 OPR/76.0.4017.107" etag="KX9BKxOy5HzBCrbdsoeZ" version="14.6.13" type="github" pages="6">
  <diagram id="ObXiP75ZGopkihdCX3eO" name="Общая схема">
    <mxGraphModel dx="1617" dy="442" grid="1" gridSize="10" guides="1" tooltips="1" connect="1" arrows="1" fold="1" page="1" pageScale="1" pageWidth="827" pageHeight="1169" math="0" shadow="0">
      <root>
        <mxCell id="0" />
        <mxCell id="1" parent="0" />
        <mxCell id="_sLUusYJ3twU9n-EqB_g-47" value="" style="rounded=1;whiteSpace=wrap;html=1;strokeColor=#000000;dashed=1;fillColor=none;" parent="1" vertex="1">
          <mxGeometry x="570" y="900" width="230" height="320" as="geometry" />
        </mxCell>
        <mxCell id="_sLUusYJ3twU9n-EqB_g-48" value="" style="rounded=1;whiteSpace=wrap;html=1;strokeColor=#000000;dashed=1;fillColor=none;" parent="1" vertex="1">
          <mxGeometry x="840" y="900" width="230" height="320" as="geometry" />
        </mxCell>
        <mxCell id="_sLUusYJ3twU9n-EqB_g-44" value="" style="rounded=1;whiteSpace=wrap;html=1;strokeColor=#000000;dashed=1;fillColor=none;" parent="1" vertex="1">
          <mxGeometry x="270" y="760" width="230" height="320" as="geometry" />
        </mxCell>
        <mxCell id="_sLUusYJ3twU9n-EqB_g-45" value="" style="rounded=1;whiteSpace=wrap;html=1;strokeColor=#000000;dashed=1;fillColor=none;" parent="1" vertex="1">
          <mxGeometry x="10" y="760" width="230" height="320" as="geometry" />
        </mxCell>
        <mxCell id="_sLUusYJ3twU9n-EqB_g-59" style="edgeStyle=orthogonalEdgeStyle;rounded=0;orthogonalLoop=1;jettySize=auto;html=1;fontSize=16;" parent="1" source="_sLUusYJ3twU9n-EqB_g-42" target="_sLUusYJ3twU9n-EqB_g-47" edge="1">
          <mxGeometry relative="1" as="geometry" />
        </mxCell>
        <mxCell id="_sLUusYJ3twU9n-EqB_g-60" style="edgeStyle=orthogonalEdgeStyle;rounded=0;orthogonalLoop=1;jettySize=auto;html=1;exitX=0.5;exitY=1;exitDx=0;exitDy=0;entryX=0.5;entryY=0;entryDx=0;entryDy=0;fontSize=16;" parent="1" source="_sLUusYJ3twU9n-EqB_g-42" target="_sLUusYJ3twU9n-EqB_g-48" edge="1">
          <mxGeometry relative="1" as="geometry" />
        </mxCell>
        <mxCell id="_sLUusYJ3twU9n-EqB_g-42" value="" style="rounded=1;whiteSpace=wrap;html=1;strokeColor=#000000;dashed=1;fillColor=none;" parent="1" vertex="1">
          <mxGeometry x="572.5" y="380" width="487" height="460" as="geometry" />
        </mxCell>
        <mxCell id="1mng_QMHvOpX0eT8RKld-42" style="edgeStyle=orthogonalEdgeStyle;rounded=0;orthogonalLoop=1;jettySize=auto;html=1;entryX=0.5;entryY=0;entryDx=0;entryDy=0;" parent="1" source="1mng_QMHvOpX0eT8RKld-41" edge="1">
          <mxGeometry relative="1" as="geometry">
            <mxPoint x="126.25" y="760" as="targetPoint" />
          </mxGeometry>
        </mxCell>
        <mxCell id="1mng_QMHvOpX0eT8RKld-43" style="edgeStyle=orthogonalEdgeStyle;rounded=0;orthogonalLoop=1;jettySize=auto;html=1;exitX=0.5;exitY=1;exitDx=0;exitDy=0;" parent="1" source="1mng_QMHvOpX0eT8RKld-41" edge="1">
          <mxGeometry relative="1" as="geometry">
            <mxPoint x="396.2352941176471" y="760" as="targetPoint" />
          </mxGeometry>
        </mxCell>
        <mxCell id="1mng_QMHvOpX0eT8RKld-41" value="" style="rounded=1;whiteSpace=wrap;html=1;strokeColor=#000000;dashed=1;fillColor=none;" parent="1" vertex="1">
          <mxGeometry x="12" y="380" width="487" height="320" as="geometry" />
        </mxCell>
        <mxCell id="_sLUusYJ3twU9n-EqB_g-10" style="edgeStyle=orthogonalEdgeStyle;rounded=0;orthogonalLoop=1;jettySize=auto;html=1;fontSize=16;" parent="1" source="1mng_QMHvOpX0eT8RKld-5" target="uTp-lQn0Z8ibe238iWLr-2" edge="1">
          <mxGeometry relative="1" as="geometry" />
        </mxCell>
        <mxCell id="1mng_QMHvOpX0eT8RKld-5" value="Получение требований и распределение по проектам" style="rounded=0;whiteSpace=wrap;html=1;" parent="1" vertex="1">
          <mxGeometry x="40" y="170" width="120" height="60" as="geometry" />
        </mxCell>
        <mxCell id="_sLUusYJ3twU9n-EqB_g-14" style="edgeStyle=orthogonalEdgeStyle;rounded=0;orthogonalLoop=1;jettySize=auto;html=1;fontSize=16;startArrow=none;entryX=0;entryY=0.5;entryDx=0;entryDy=0;exitX=0.5;exitY=1;exitDx=0;exitDy=0;exitPerimeter=0;" parent="1" source="F6A8z5wkKTkSr_jPnCP2-1" target="1mng_QMHvOpX0eT8RKld-7" edge="1">
          <mxGeometry relative="1" as="geometry">
            <Array as="points">
              <mxPoint x="524" y="240" />
            </Array>
          </mxGeometry>
        </mxCell>
        <mxCell id="F6A8z5wkKTkSr_jPnCP2-4" value="Отдельное&lt;br&gt;требование" style="edgeLabel;html=1;align=center;verticalAlign=middle;resizable=0;points=[];" vertex="1" connectable="0" parent="_sLUusYJ3twU9n-EqB_g-14">
          <mxGeometry x="-0.3452" relative="1" as="geometry">
            <mxPoint x="5" as="offset" />
          </mxGeometry>
        </mxCell>
        <mxCell id="1mng_QMHvOpX0eT8RKld-6" value="Уточнение и согласование требований" style="rounded=0;whiteSpace=wrap;html=1;" parent="1" vertex="1">
          <mxGeometry x="345" y="170" width="120" height="60" as="geometry" />
        </mxCell>
        <mxCell id="_sLUusYJ3twU9n-EqB_g-15" style="edgeStyle=orthogonalEdgeStyle;rounded=0;orthogonalLoop=1;jettySize=auto;html=1;fontSize=16;" parent="1" source="1mng_QMHvOpX0eT8RKld-7" target="uTp-lQn0Z8ibe238iWLr-5" edge="1">
          <mxGeometry relative="1" as="geometry" />
        </mxCell>
        <mxCell id="1mng_QMHvOpX0eT8RKld-7" value="Фиксирование требований в Jira" style="rounded=0;whiteSpace=wrap;html=1;" parent="1" vertex="1">
          <mxGeometry x="590" y="210" width="120" height="60" as="geometry" />
        </mxCell>
        <mxCell id="_sLUusYJ3twU9n-EqB_g-18" style="edgeStyle=orthogonalEdgeStyle;rounded=0;orthogonalLoop=1;jettySize=auto;html=1;fontSize=16;" parent="1" source="1mng_QMHvOpX0eT8RKld-8" target="1mng_QMHvOpX0eT8RKld-10" edge="1">
          <mxGeometry relative="1" as="geometry" />
        </mxCell>
        <mxCell id="1mng_QMHvOpX0eT8RKld-8" value="Определение плана работ для требований" style="rounded=0;whiteSpace=wrap;html=1;" parent="1" vertex="1">
          <mxGeometry x="912.5" y="210" width="120" height="60" as="geometry" />
        </mxCell>
        <mxCell id="1mng_QMHvOpX0eT8RKld-9" value="Подготовительный этап" style="text;html=1;strokeColor=none;fillColor=none;align=center;verticalAlign=middle;whiteSpace=wrap;rounded=0;" parent="1" vertex="1">
          <mxGeometry x="190" y="120" width="155" height="20" as="geometry" />
        </mxCell>
        <mxCell id="_sLUusYJ3twU9n-EqB_g-19" style="edgeStyle=orthogonalEdgeStyle;rounded=0;orthogonalLoop=1;jettySize=auto;html=1;fontSize=16;" parent="1" source="1mng_QMHvOpX0eT8RKld-10" target="1mng_QMHvOpX0eT8RKld-11" edge="1">
          <mxGeometry relative="1" as="geometry" />
        </mxCell>
        <mxCell id="1mng_QMHvOpX0eT8RKld-10" value="Написание постановок" style="rounded=0;whiteSpace=wrap;html=1;" parent="1" vertex="1">
          <mxGeometry x="1165" y="170" width="120" height="60" as="geometry" />
        </mxCell>
        <mxCell id="_sLUusYJ3twU9n-EqB_g-20" style="edgeStyle=orthogonalEdgeStyle;rounded=0;orthogonalLoop=1;jettySize=auto;html=1;fontSize=16;" parent="1" source="1mng_QMHvOpX0eT8RKld-11" target="uTp-lQn0Z8ibe238iWLr-7" edge="1">
          <mxGeometry relative="1" as="geometry" />
        </mxCell>
        <mxCell id="1mng_QMHvOpX0eT8RKld-11" value="Определение и назначение исполнителей" style="rounded=0;whiteSpace=wrap;html=1;" parent="1" vertex="1">
          <mxGeometry x="1320" y="170" width="120" height="60" as="geometry" />
        </mxCell>
        <mxCell id="_sLUusYJ3twU9n-EqB_g-23" style="edgeStyle=orthogonalEdgeStyle;rounded=0;orthogonalLoop=1;jettySize=auto;html=1;fontSize=16;" parent="1" source="1mng_QMHvOpX0eT8RKld-12" target="1mng_QMHvOpX0eT8RKld-13" edge="1">
          <mxGeometry relative="1" as="geometry" />
        </mxCell>
        <mxCell id="1mng_QMHvOpX0eT8RKld-12" value="Реализация требвоания" style="rounded=0;whiteSpace=wrap;html=1;strokeColor=#000000;" parent="1" vertex="1">
          <mxGeometry x="1701" y="170" width="120" height="60" as="geometry" />
        </mxCell>
        <mxCell id="_sLUusYJ3twU9n-EqB_g-24" style="edgeStyle=orthogonalEdgeStyle;rounded=0;orthogonalLoop=1;jettySize=auto;html=1;fontSize=16;startArrow=none;" parent="1" source="Mdg6IsK0-AXieFcoMjiG-1" target="1mng_QMHvOpX0eT8RKld-17" edge="1">
          <mxGeometry relative="1" as="geometry" />
        </mxCell>
        <mxCell id="BWERm0phxyf6aNqjwb44-5" style="edgeStyle=orthogonalEdgeStyle;rounded=0;orthogonalLoop=1;jettySize=auto;html=1;entryX=0;entryY=0.5;entryDx=0;entryDy=0;" parent="1" source="1mng_QMHvOpX0eT8RKld-13" target="Mdg6IsK0-AXieFcoMjiG-1" edge="1">
          <mxGeometry relative="1" as="geometry" />
        </mxCell>
        <mxCell id="1mng_QMHvOpX0eT8RKld-13" value="Консультация разработчиков" style="rounded=0;whiteSpace=wrap;html=1;strokeColor=#000000;" parent="1" vertex="1">
          <mxGeometry x="1891" y="170" width="120" height="60" as="geometry" />
        </mxCell>
        <mxCell id="1mng_QMHvOpX0eT8RKld-15" value="Постановки" style="text;html=1;strokeColor=none;fillColor=none;align=center;verticalAlign=middle;whiteSpace=wrap;rounded=0;" parent="1" vertex="1">
          <mxGeometry x="1267.5" y="120" width="155" height="20" as="geometry" />
        </mxCell>
        <mxCell id="1mng_QMHvOpX0eT8RKld-16" value="Производство" style="text;html=1;strokeColor=none;fillColor=none;align=center;verticalAlign=middle;whiteSpace=wrap;rounded=0;" parent="1" vertex="1">
          <mxGeometry x="1837.5" y="120" width="155" height="20" as="geometry" />
        </mxCell>
        <mxCell id="_sLUusYJ3twU9n-EqB_g-25" style="edgeStyle=orthogonalEdgeStyle;rounded=0;orthogonalLoop=1;jettySize=auto;html=1;fontSize=16;" parent="1" source="1mng_QMHvOpX0eT8RKld-17" target="uTp-lQn0Z8ibe238iWLr-9" edge="1">
          <mxGeometry relative="1" as="geometry" />
        </mxCell>
        <mxCell id="1mng_QMHvOpX0eT8RKld-17" value="Приведение постановок к фактической реализации" style="rounded=0;whiteSpace=wrap;html=1;strokeColor=#000000;" parent="1" vertex="1">
          <mxGeometry x="2240" y="170" width="120" height="60" as="geometry" />
        </mxCell>
        <mxCell id="1mng_QMHvOpX0eT8RKld-22" value="Промаркиованная таблица требований проекта" style="rounded=0;whiteSpace=wrap;html=1;" parent="1" vertex="1">
          <mxGeometry x="312.5" y="470" width="120" height="60" as="geometry" />
        </mxCell>
        <mxCell id="1mng_QMHvOpX0eT8RKld-25" value="Выходные материалы" style="text;html=1;strokeColor=none;fillColor=none;align=center;verticalAlign=middle;whiteSpace=wrap;rounded=0;" parent="1" vertex="1">
          <mxGeometry x="295" y="430" width="155" height="20" as="geometry" />
        </mxCell>
        <mxCell id="_sLUusYJ3twU9n-EqB_g-13" style="edgeStyle=orthogonalEdgeStyle;rounded=0;orthogonalLoop=1;jettySize=auto;html=1;fontSize=16;" parent="1" source="1mng_QMHvOpX0eT8RKld-27" target="1mng_QMHvOpX0eT8RKld-22" edge="1">
          <mxGeometry relative="1" as="geometry" />
        </mxCell>
        <mxCell id="1mng_QMHvOpX0eT8RKld-27" value="Регистрация требований и выявление противоречий" style="rounded=0;whiteSpace=wrap;html=1;" parent="1" vertex="1">
          <mxGeometry x="70" y="470" width="120" height="60" as="geometry" />
        </mxCell>
        <mxCell id="1mng_QMHvOpX0eT8RKld-29" value="Процессы" style="text;html=1;strokeColor=none;fillColor=none;align=center;verticalAlign=middle;whiteSpace=wrap;rounded=0;" parent="1" vertex="1">
          <mxGeometry x="52.5" y="430" width="155" height="20" as="geometry" />
        </mxCell>
        <mxCell id="1mng_QMHvOpX0eT8RKld-32" value="Именование требований" style="rounded=0;whiteSpace=wrap;html=1;" parent="1" vertex="1">
          <mxGeometry x="332.5" y="850" width="120" height="60" as="geometry" />
        </mxCell>
        <mxCell id="1mng_QMHvOpX0eT8RKld-34" value="Правила" style="text;html=1;strokeColor=none;fillColor=none;align=center;verticalAlign=middle;whiteSpace=wrap;rounded=0;" parent="1" vertex="1">
          <mxGeometry x="315" y="800" width="155" height="20" as="geometry" />
        </mxCell>
        <mxCell id="1mng_QMHvOpX0eT8RKld-38" value="Регистрация требований" style="rounded=0;whiteSpace=wrap;html=1;" parent="1" vertex="1">
          <mxGeometry x="62.5" y="850" width="120" height="60" as="geometry" />
        </mxCell>
        <mxCell id="1mng_QMHvOpX0eT8RKld-39" value="Согласование требований и фиксация изменений" style="rounded=0;whiteSpace=wrap;html=1;" parent="1" vertex="1">
          <mxGeometry x="62.5" y="940" width="120" height="60" as="geometry" />
        </mxCell>
        <mxCell id="1mng_QMHvOpX0eT8RKld-40" value="Регламенты" style="text;html=1;strokeColor=none;fillColor=none;align=center;verticalAlign=middle;whiteSpace=wrap;rounded=0;" parent="1" vertex="1">
          <mxGeometry x="45" y="800" width="155" height="20" as="geometry" />
        </mxCell>
        <mxCell id="uTp-lQn0Z8ibe238iWLr-1" value="&lt;div style=&quot;font-size: 16px;&quot;&gt;1. Получить требования&lt;/div&gt;&lt;div style=&quot;font-size: 16px;&quot;&gt;2. Распределить по проектам&lt;/div&gt;&lt;div style=&quot;font-size: 16px;&quot;&gt;3. Присвоить проектам маркировку для требований&lt;/div&gt;&lt;div style=&quot;font-size: 16px;&quot;&gt;4. Зарегистрировать требования&lt;/div&gt;&lt;div style=&quot;font-size: 16px;&quot;&gt;5. Уточнить требования (выявление противоречий, дублей и пр.)&lt;/div&gt;&lt;div style=&quot;font-size: 16px;&quot;&gt;6. Зафиксировать требования в Jira&lt;/div&gt;&lt;div style=&quot;font-size: 16px;&quot;&gt;7. Назначить аналитика&lt;/div&gt;&lt;div style=&quot;font-size: 16px;&quot;&gt;8. Согласовать требования с заказчиком (написание БП)&lt;/div&gt;&lt;div style=&quot;font-size: 16px;&quot;&gt;9. Определить план работ по требованию (+ Завести задачи в Jira)&lt;/div&gt;&lt;div style=&quot;font-size: 16px;&quot;&gt;10. Написать постановки&lt;/div&gt;&lt;div style=&quot;font-size: 16px;&quot;&gt;11. Определить и назначить исполнителей&lt;/div&gt;&lt;div style=&quot;font-size: 16px;&quot;&gt;12. Реализовать требование&lt;/div&gt;&lt;div style=&quot;font-size: 16px;&quot;&gt;13. Консультировать разработчиков&lt;/div&gt;&lt;div style=&quot;font-size: 16px;&quot;&gt;14. Привести постановку к фактической реализации&lt;/div&gt;&lt;div style=&quot;font-size: 16px;&quot;&gt;15. Сдать работы + релиз на прод&lt;/div&gt;" style="text;html=1;align=left;verticalAlign=middle;resizable=0;points=[];autosize=1;strokeColor=none;fontSize=16;" parent="1" vertex="1">
          <mxGeometry x="2960" y="400" width="520" height="280" as="geometry" />
        </mxCell>
        <mxCell id="_sLUusYJ3twU9n-EqB_g-11" style="edgeStyle=orthogonalEdgeStyle;rounded=0;orthogonalLoop=1;jettySize=auto;html=1;fontSize=16;" parent="1" source="uTp-lQn0Z8ibe238iWLr-2" target="1mng_QMHvOpX0eT8RKld-6" edge="1">
          <mxGeometry relative="1" as="geometry" />
        </mxCell>
        <mxCell id="uTp-lQn0Z8ibe238iWLr-2" value="Присвоение маркировки и регистрация требований" style="rounded=0;whiteSpace=wrap;html=1;" parent="1" vertex="1">
          <mxGeometry x="190" y="170" width="120" height="60" as="geometry" />
        </mxCell>
        <mxCell id="_sLUusYJ3twU9n-EqB_g-16" style="edgeStyle=orthogonalEdgeStyle;rounded=0;orthogonalLoop=1;jettySize=auto;html=1;fontSize=16;" parent="1" source="uTp-lQn0Z8ibe238iWLr-5" target="1mng_QMHvOpX0eT8RKld-8" edge="1">
          <mxGeometry relative="1" as="geometry" />
        </mxCell>
        <mxCell id="uTp-lQn0Z8ibe238iWLr-5" value="Написание БП и согласование требования с заказчиком" style="rounded=0;whiteSpace=wrap;html=1;" parent="1" vertex="1">
          <mxGeometry x="753" y="210" width="120" height="60" as="geometry" />
        </mxCell>
        <mxCell id="uTp-lQn0Z8ibe238iWLr-6" value="Планирование" style="text;html=1;strokeColor=none;fillColor=none;align=center;verticalAlign=middle;whiteSpace=wrap;rounded=0;" parent="1" vertex="1">
          <mxGeometry x="757.5" y="100" width="155" height="20" as="geometry" />
        </mxCell>
        <mxCell id="_sLUusYJ3twU9n-EqB_g-22" style="edgeStyle=orthogonalEdgeStyle;rounded=0;orthogonalLoop=1;jettySize=auto;html=1;fontSize=16;" parent="1" source="uTp-lQn0Z8ibe238iWLr-7" target="1mng_QMHvOpX0eT8RKld-12" edge="1">
          <mxGeometry relative="1" as="geometry" />
        </mxCell>
        <mxCell id="uTp-lQn0Z8ibe238iWLr-7" value="Коррекция плана работ по требованию" style="rounded=0;whiteSpace=wrap;html=1;" parent="1" vertex="1">
          <mxGeometry x="1470" y="170" width="120" height="60" as="geometry" />
        </mxCell>
        <mxCell id="_sLUusYJ3twU9n-EqB_g-26" style="edgeStyle=orthogonalEdgeStyle;rounded=0;orthogonalLoop=1;jettySize=auto;html=1;fontSize=16;" parent="1" source="uTp-lQn0Z8ibe238iWLr-9" target="uTp-lQn0Z8ibe238iWLr-10" edge="1">
          <mxGeometry relative="1" as="geometry" />
        </mxCell>
        <mxCell id="uTp-lQn0Z8ibe238iWLr-9" value="Провести показ" style="rounded=0;whiteSpace=wrap;html=1;strokeColor=#000000;" parent="1" vertex="1">
          <mxGeometry x="2461" y="170" width="120" height="60" as="geometry" />
        </mxCell>
        <mxCell id="_sLUusYJ3twU9n-EqB_g-27" style="edgeStyle=orthogonalEdgeStyle;rounded=0;orthogonalLoop=1;jettySize=auto;html=1;entryX=0;entryY=0.5;entryDx=0;entryDy=0;fontSize=16;" parent="1" source="uTp-lQn0Z8ibe238iWLr-10" target="uTp-lQn0Z8ibe238iWLr-12" edge="1">
          <mxGeometry relative="1" as="geometry" />
        </mxCell>
        <mxCell id="uTp-lQn0Z8ibe238iWLr-10" value="Планирование релиза" style="rounded=0;whiteSpace=wrap;html=1;strokeColor=#000000;" parent="1" vertex="1">
          <mxGeometry x="2615" y="170" width="120" height="60" as="geometry" />
        </mxCell>
        <mxCell id="uTp-lQn0Z8ibe238iWLr-11" value="Сдача работ" style="text;html=1;strokeColor=none;fillColor=none;align=center;verticalAlign=middle;whiteSpace=wrap;rounded=0;" parent="1" vertex="1">
          <mxGeometry x="2597.5" y="120" width="155" height="20" as="geometry" />
        </mxCell>
        <mxCell id="uTp-lQn0Z8ibe238iWLr-12" value="Релиз на прод" style="rounded=0;whiteSpace=wrap;html=1;strokeColor=#000000;" parent="1" vertex="1">
          <mxGeometry x="2760" y="170" width="120" height="60" as="geometry" />
        </mxCell>
        <mxCell id="uTp-lQn0Z8ibe238iWLr-15" value="Правила регистрации требований" style="rounded=0;whiteSpace=wrap;html=1;" parent="1" vertex="1">
          <mxGeometry x="332.5" y="930" width="120" height="60" as="geometry" />
        </mxCell>
        <mxCell id="_sLUusYJ3twU9n-EqB_g-3" value="Список задач в Jira" style="rounded=0;whiteSpace=wrap;html=1;" parent="1" vertex="1">
          <mxGeometry x="892.5" y="470" width="120" height="60" as="geometry" />
        </mxCell>
        <mxCell id="_sLUusYJ3twU9n-EqB_g-4" value="Выходные материалы" style="text;html=1;strokeColor=none;fillColor=none;align=center;verticalAlign=middle;whiteSpace=wrap;rounded=0;" parent="1" vertex="1">
          <mxGeometry x="875" y="420" width="155" height="20" as="geometry" />
        </mxCell>
        <mxCell id="_sLUusYJ3twU9n-EqB_g-53" style="edgeStyle=orthogonalEdgeStyle;rounded=0;orthogonalLoop=1;jettySize=auto;html=1;entryX=0;entryY=0.5;entryDx=0;entryDy=0;fontSize=16;" parent="1" source="_sLUusYJ3twU9n-EqB_g-7" target="_sLUusYJ3twU9n-EqB_g-3" edge="1">
          <mxGeometry relative="1" as="geometry" />
        </mxCell>
        <mxCell id="_sLUusYJ3twU9n-EqB_g-7" value="Заведение задач в Jira" style="rounded=0;whiteSpace=wrap;html=1;" parent="1" vertex="1">
          <mxGeometry x="650" y="470" width="120" height="60" as="geometry" />
        </mxCell>
        <mxCell id="_sLUusYJ3twU9n-EqB_g-8" value="Процессы" style="text;html=1;strokeColor=none;fillColor=none;align=center;verticalAlign=middle;whiteSpace=wrap;rounded=0;" parent="1" vertex="1">
          <mxGeometry x="632.5" y="420" width="155" height="20" as="geometry" />
        </mxCell>
        <mxCell id="_sLUusYJ3twU9n-EqB_g-12" value="" style="endArrow=none;dashed=1;html=1;fontSize=16;" parent="1" edge="1">
          <mxGeometry width="50" height="50" relative="1" as="geometry">
            <mxPoint x="520" y="330" as="sourcePoint" />
            <mxPoint x="520" y="70" as="targetPoint" />
          </mxGeometry>
        </mxCell>
        <mxCell id="_sLUusYJ3twU9n-EqB_g-17" value="" style="endArrow=none;dashed=1;html=1;fontSize=16;" parent="1" edge="1">
          <mxGeometry width="50" height="50" relative="1" as="geometry">
            <mxPoint x="1100" y="330" as="sourcePoint" />
            <mxPoint x="1100" y="69.99999999999989" as="targetPoint" />
          </mxGeometry>
        </mxCell>
        <mxCell id="_sLUusYJ3twU9n-EqB_g-21" value="" style="endArrow=none;dashed=1;html=1;fontSize=16;" parent="1" edge="1">
          <mxGeometry width="50" height="50" relative="1" as="geometry">
            <mxPoint x="1646.9999999999995" y="330" as="sourcePoint" />
            <mxPoint x="1646.9999999999995" y="69.99999999999989" as="targetPoint" />
          </mxGeometry>
        </mxCell>
        <mxCell id="_sLUusYJ3twU9n-EqB_g-28" value="" style="endArrow=none;dashed=1;html=1;fontSize=16;" parent="1" edge="1">
          <mxGeometry width="50" height="50" relative="1" as="geometry">
            <mxPoint x="2396.9999999999995" y="330" as="sourcePoint" />
            <mxPoint x="2396.9999999999995" y="69.99999999999989" as="targetPoint" />
          </mxGeometry>
        </mxCell>
        <mxCell id="_sLUusYJ3twU9n-EqB_g-30" style="edgeStyle=orthogonalEdgeStyle;rounded=0;orthogonalLoop=1;jettySize=auto;html=1;exitX=0;exitY=0.5;exitDx=0;exitDy=0;exitPerimeter=0;entryX=0.5;entryY=0;entryDx=0;entryDy=0;fontSize=16;" parent="1" source="_sLUusYJ3twU9n-EqB_g-29" target="1mng_QMHvOpX0eT8RKld-41" edge="1">
          <mxGeometry relative="1" as="geometry" />
        </mxCell>
        <mxCell id="_sLUusYJ3twU9n-EqB_g-29" value="" style="strokeWidth=2;html=1;shape=mxgraph.flowchart.annotation_2;align=left;labelPosition=right;pointerEvents=1;fontSize=16;rotation=-90;" parent="1" vertex="1">
          <mxGeometry x="230.5" y="85" width="50" height="450" as="geometry" />
        </mxCell>
        <mxCell id="_sLUusYJ3twU9n-EqB_g-31" value="Таблица требований по проектам" style="rounded=0;whiteSpace=wrap;html=1;" parent="1" vertex="1">
          <mxGeometry x="312.5" y="570" width="120" height="60" as="geometry" />
        </mxCell>
        <mxCell id="_sLUusYJ3twU9n-EqB_g-33" style="edgeStyle=orthogonalEdgeStyle;rounded=0;orthogonalLoop=1;jettySize=auto;html=1;fontSize=16;" parent="1" source="_sLUusYJ3twU9n-EqB_g-32" target="_sLUusYJ3twU9n-EqB_g-31" edge="1">
          <mxGeometry relative="1" as="geometry" />
        </mxCell>
        <mxCell id="_sLUusYJ3twU9n-EqB_g-32" value="Распределение требований по проектам" style="rounded=0;whiteSpace=wrap;html=1;" parent="1" vertex="1">
          <mxGeometry x="70" y="570" width="120" height="60" as="geometry" />
        </mxCell>
        <mxCell id="_sLUusYJ3twU9n-EqB_g-35" value="Именование задач и связывание" style="rounded=0;whiteSpace=wrap;html=1;" parent="1" vertex="1">
          <mxGeometry x="900" y="990" width="120" height="60" as="geometry" />
        </mxCell>
        <mxCell id="_sLUusYJ3twU9n-EqB_g-36" value="Правила" style="text;html=1;strokeColor=none;fillColor=none;align=center;verticalAlign=middle;whiteSpace=wrap;rounded=0;" parent="1" vertex="1">
          <mxGeometry x="882.5" y="940" width="155" height="20" as="geometry" />
        </mxCell>
        <mxCell id="_sLUusYJ3twU9n-EqB_g-38" value="Подготовка БП для согласования с заказчиком" style="rounded=0;whiteSpace=wrap;html=1;" parent="1" vertex="1">
          <mxGeometry x="630" y="990" width="120" height="60" as="geometry" />
        </mxCell>
        <mxCell id="_sLUusYJ3twU9n-EqB_g-40" value="Регламенты" style="text;html=1;strokeColor=none;fillColor=none;align=center;verticalAlign=middle;whiteSpace=wrap;rounded=0;" parent="1" vertex="1">
          <mxGeometry x="612.5" y="940" width="155" height="20" as="geometry" />
        </mxCell>
        <mxCell id="_sLUusYJ3twU9n-EqB_g-54" style="edgeStyle=orthogonalEdgeStyle;rounded=0;orthogonalLoop=1;jettySize=auto;html=1;entryX=0;entryY=0.5;entryDx=0;entryDy=0;fontSize=16;" parent="1" source="_sLUusYJ3twU9n-EqB_g-43" target="_sLUusYJ3twU9n-EqB_g-51" edge="1">
          <mxGeometry relative="1" as="geometry" />
        </mxCell>
        <mxCell id="_sLUusYJ3twU9n-EqB_g-43" value="Написание БП и согласование с командой" style="rounded=0;whiteSpace=wrap;html=1;" parent="1" vertex="1">
          <mxGeometry x="650" y="550" width="120" height="60" as="geometry" />
        </mxCell>
        <mxCell id="_sLUusYJ3twU9n-EqB_g-50" style="edgeStyle=orthogonalEdgeStyle;rounded=0;orthogonalLoop=1;jettySize=auto;html=1;entryX=0.5;entryY=0;entryDx=0;entryDy=0;fontSize=16;" parent="1" source="_sLUusYJ3twU9n-EqB_g-46" target="_sLUusYJ3twU9n-EqB_g-42" edge="1">
          <mxGeometry relative="1" as="geometry" />
        </mxCell>
        <mxCell id="_sLUusYJ3twU9n-EqB_g-46" value="" style="strokeWidth=2;html=1;shape=mxgraph.flowchart.annotation_2;align=left;labelPosition=right;pointerEvents=1;fontSize=16;rotation=-90;" parent="1" vertex="1">
          <mxGeometry x="791.5" y="85" width="50" height="450" as="geometry" />
        </mxCell>
        <mxCell id="_sLUusYJ3twU9n-EqB_g-55" style="edgeStyle=orthogonalEdgeStyle;rounded=0;orthogonalLoop=1;jettySize=auto;html=1;entryX=0;entryY=0.5;entryDx=0;entryDy=0;fontSize=16;" parent="1" source="_sLUusYJ3twU9n-EqB_g-49" target="_sLUusYJ3twU9n-EqB_g-52" edge="1">
          <mxGeometry relative="1" as="geometry" />
        </mxCell>
        <mxCell id="_sLUusYJ3twU9n-EqB_g-49" value="Согласование БП с заказчиком" style="rounded=0;whiteSpace=wrap;html=1;" parent="1" vertex="1">
          <mxGeometry x="650" y="650" width="120" height="60" as="geometry" />
        </mxCell>
        <mxCell id="_sLUusYJ3twU9n-EqB_g-51" value="БП для согласования с командой" style="rounded=0;whiteSpace=wrap;html=1;" parent="1" vertex="1">
          <mxGeometry x="892.5" y="550" width="120" height="60" as="geometry" />
        </mxCell>
        <mxCell id="_sLUusYJ3twU9n-EqB_g-52" value="Согласованная БП" style="rounded=0;whiteSpace=wrap;html=1;" parent="1" vertex="1">
          <mxGeometry x="892.5" y="650" width="120" height="60" as="geometry" />
        </mxCell>
        <mxCell id="_sLUusYJ3twU9n-EqB_g-56" style="edgeStyle=orthogonalEdgeStyle;rounded=0;orthogonalLoop=1;jettySize=auto;html=1;entryX=0;entryY=0.5;entryDx=0;entryDy=0;fontSize=16;" parent="1" source="_sLUusYJ3twU9n-EqB_g-57" target="_sLUusYJ3twU9n-EqB_g-58" edge="1">
          <mxGeometry relative="1" as="geometry" />
        </mxCell>
        <mxCell id="_sLUusYJ3twU9n-EqB_g-57" value="Определение плана работ по требованию и заведение задач" style="rounded=0;whiteSpace=wrap;html=1;" parent="1" vertex="1">
          <mxGeometry x="650" y="750" width="120" height="60" as="geometry" />
        </mxCell>
        <mxCell id="_sLUusYJ3twU9n-EqB_g-58" value="Связанный список задач по требованию" style="rounded=0;whiteSpace=wrap;html=1;" parent="1" vertex="1">
          <mxGeometry x="892.5" y="750" width="120" height="60" as="geometry" />
        </mxCell>
        <mxCell id="_sLUusYJ3twU9n-EqB_g-61" value="" style="rounded=1;whiteSpace=wrap;html=1;strokeColor=#000000;dashed=1;fillColor=none;" parent="1" vertex="1">
          <mxGeometry x="1390" y="760" width="230" height="320" as="geometry" />
        </mxCell>
        <mxCell id="_sLUusYJ3twU9n-EqB_g-62" value="" style="rounded=1;whiteSpace=wrap;html=1;strokeColor=#000000;dashed=1;fillColor=none;" parent="1" vertex="1">
          <mxGeometry x="1130" y="760" width="230" height="320" as="geometry" />
        </mxCell>
        <mxCell id="_sLUusYJ3twU9n-EqB_g-63" style="edgeStyle=orthogonalEdgeStyle;rounded=0;orthogonalLoop=1;jettySize=auto;html=1;entryX=0.5;entryY=0;entryDx=0;entryDy=0;" parent="1" source="_sLUusYJ3twU9n-EqB_g-65" edge="1">
          <mxGeometry relative="1" as="geometry">
            <mxPoint x="1246.25" y="760" as="targetPoint" />
          </mxGeometry>
        </mxCell>
        <mxCell id="_sLUusYJ3twU9n-EqB_g-64" style="edgeStyle=orthogonalEdgeStyle;rounded=0;orthogonalLoop=1;jettySize=auto;html=1;exitX=0.5;exitY=1;exitDx=0;exitDy=0;" parent="1" source="_sLUusYJ3twU9n-EqB_g-65" edge="1">
          <mxGeometry relative="1" as="geometry">
            <mxPoint x="1516.235294117647" y="760" as="targetPoint" />
          </mxGeometry>
        </mxCell>
        <mxCell id="_sLUusYJ3twU9n-EqB_g-65" value="" style="rounded=1;whiteSpace=wrap;html=1;strokeColor=#000000;dashed=1;fillColor=none;" parent="1" vertex="1">
          <mxGeometry x="1132" y="380" width="487" height="320" as="geometry" />
        </mxCell>
        <mxCell id="_sLUusYJ3twU9n-EqB_g-66" value="Согласованная постановка" style="rounded=0;whiteSpace=wrap;html=1;" parent="1" vertex="1">
          <mxGeometry x="1432.5" y="470" width="120" height="60" as="geometry" />
        </mxCell>
        <mxCell id="_sLUusYJ3twU9n-EqB_g-67" value="Выходные материалы" style="text;html=1;strokeColor=none;fillColor=none;align=center;verticalAlign=middle;whiteSpace=wrap;rounded=0;" parent="1" vertex="1">
          <mxGeometry x="1415" y="430" width="155" height="20" as="geometry" />
        </mxCell>
        <mxCell id="_sLUusYJ3twU9n-EqB_g-68" style="edgeStyle=orthogonalEdgeStyle;rounded=0;orthogonalLoop=1;jettySize=auto;html=1;fontSize=16;" parent="1" source="_sLUusYJ3twU9n-EqB_g-69" target="_sLUusYJ3twU9n-EqB_g-66" edge="1">
          <mxGeometry relative="1" as="geometry" />
        </mxCell>
        <mxCell id="_sLUusYJ3twU9n-EqB_g-69" value="Порядок действий при написании постановки" style="rounded=0;whiteSpace=wrap;html=1;" parent="1" vertex="1">
          <mxGeometry x="1190" y="470" width="120" height="60" as="geometry" />
        </mxCell>
        <mxCell id="_sLUusYJ3twU9n-EqB_g-70" value="Процессы" style="text;html=1;strokeColor=none;fillColor=none;align=center;verticalAlign=middle;whiteSpace=wrap;rounded=0;" parent="1" vertex="1">
          <mxGeometry x="1172.5" y="430" width="155" height="20" as="geometry" />
        </mxCell>
        <mxCell id="_sLUusYJ3twU9n-EqB_g-71" value="Написание постановки" style="rounded=0;whiteSpace=wrap;html=1;" parent="1" vertex="1">
          <mxGeometry x="1452.5" y="850" width="120" height="60" as="geometry" />
        </mxCell>
        <mxCell id="_sLUusYJ3twU9n-EqB_g-72" value="Правила" style="text;html=1;strokeColor=none;fillColor=none;align=center;verticalAlign=middle;whiteSpace=wrap;rounded=0;" parent="1" vertex="1">
          <mxGeometry x="1435" y="800" width="155" height="20" as="geometry" />
        </mxCell>
        <mxCell id="_sLUusYJ3twU9n-EqB_g-73" value="Согласования постановки" style="rounded=0;whiteSpace=wrap;html=1;" parent="1" vertex="1">
          <mxGeometry x="1182.5" y="850" width="120" height="60" as="geometry" />
        </mxCell>
        <mxCell id="_sLUusYJ3twU9n-EqB_g-75" value="Регламенты" style="text;html=1;strokeColor=none;fillColor=none;align=center;verticalAlign=middle;whiteSpace=wrap;rounded=0;" parent="1" vertex="1">
          <mxGeometry x="1165" y="800" width="155" height="20" as="geometry" />
        </mxCell>
        <mxCell id="_sLUusYJ3twU9n-EqB_g-77" style="edgeStyle=orthogonalEdgeStyle;rounded=0;orthogonalLoop=1;jettySize=auto;html=1;exitX=0;exitY=0.5;exitDx=0;exitDy=0;exitPerimeter=0;entryX=0.5;entryY=0;entryDx=0;entryDy=0;fontSize=16;" parent="1" source="_sLUusYJ3twU9n-EqB_g-78" target="_sLUusYJ3twU9n-EqB_g-65" edge="1">
          <mxGeometry relative="1" as="geometry" />
        </mxCell>
        <mxCell id="_sLUusYJ3twU9n-EqB_g-78" value="" style="strokeWidth=2;html=1;shape=mxgraph.flowchart.annotation_2;align=left;labelPosition=right;pointerEvents=1;fontSize=16;rotation=-90;" parent="1" vertex="1">
          <mxGeometry x="1349.5" y="85" width="50" height="450" as="geometry" />
        </mxCell>
        <mxCell id="_sLUusYJ3twU9n-EqB_g-82" value="" style="rounded=1;whiteSpace=wrap;html=1;strokeColor=#000000;dashed=1;fillColor=none;" parent="1" vertex="1">
          <mxGeometry x="1930" y="760" width="230" height="320" as="geometry" />
        </mxCell>
        <mxCell id="_sLUusYJ3twU9n-EqB_g-83" value="" style="rounded=1;whiteSpace=wrap;html=1;strokeColor=#000000;dashed=1;fillColor=none;" parent="1" vertex="1">
          <mxGeometry x="1670" y="760" width="230" height="320" as="geometry" />
        </mxCell>
        <mxCell id="_sLUusYJ3twU9n-EqB_g-84" style="edgeStyle=orthogonalEdgeStyle;rounded=0;orthogonalLoop=1;jettySize=auto;html=1;entryX=0.5;entryY=0;entryDx=0;entryDy=0;" parent="1" source="_sLUusYJ3twU9n-EqB_g-86" edge="1">
          <mxGeometry relative="1" as="geometry">
            <mxPoint x="1786.2499999999995" y="760" as="targetPoint" />
          </mxGeometry>
        </mxCell>
        <mxCell id="_sLUusYJ3twU9n-EqB_g-85" style="edgeStyle=orthogonalEdgeStyle;rounded=0;orthogonalLoop=1;jettySize=auto;html=1;exitX=0.5;exitY=1;exitDx=0;exitDy=0;" parent="1" source="_sLUusYJ3twU9n-EqB_g-86" edge="1">
          <mxGeometry relative="1" as="geometry">
            <mxPoint x="2056.235294117647" y="760" as="targetPoint" />
          </mxGeometry>
        </mxCell>
        <mxCell id="_sLUusYJ3twU9n-EqB_g-86" value="" style="rounded=1;whiteSpace=wrap;html=1;strokeColor=#000000;dashed=1;fillColor=none;" parent="1" vertex="1">
          <mxGeometry x="1672" y="380" width="487" height="320" as="geometry" />
        </mxCell>
        <mxCell id="_sLUusYJ3twU9n-EqB_g-88" value="Выходные материалы" style="text;html=1;strokeColor=none;fillColor=none;align=center;verticalAlign=middle;whiteSpace=wrap;rounded=0;" parent="1" vertex="1">
          <mxGeometry x="1955" y="430" width="155" height="20" as="geometry" />
        </mxCell>
        <mxCell id="_sLUusYJ3twU9n-EqB_g-91" value="Процессы" style="text;html=1;strokeColor=none;fillColor=none;align=center;verticalAlign=middle;whiteSpace=wrap;rounded=0;" parent="1" vertex="1">
          <mxGeometry x="1712.5" y="430" width="155" height="20" as="geometry" />
        </mxCell>
        <mxCell id="_sLUusYJ3twU9n-EqB_g-93" value="Правила" style="text;html=1;strokeColor=none;fillColor=none;align=center;verticalAlign=middle;whiteSpace=wrap;rounded=0;" parent="1" vertex="1">
          <mxGeometry x="1975" y="800" width="155" height="20" as="geometry" />
        </mxCell>
        <mxCell id="_sLUusYJ3twU9n-EqB_g-94" value="Сдачи работ по задаче" style="rounded=0;whiteSpace=wrap;html=1;" parent="1" vertex="1">
          <mxGeometry x="1722.5" y="850" width="120" height="60" as="geometry" />
        </mxCell>
        <mxCell id="_sLUusYJ3twU9n-EqB_g-95" value="Регламенты" style="text;html=1;strokeColor=none;fillColor=none;align=center;verticalAlign=middle;whiteSpace=wrap;rounded=0;" parent="1" vertex="1">
          <mxGeometry x="1705" y="800" width="155" height="20" as="geometry" />
        </mxCell>
        <mxCell id="_sLUusYJ3twU9n-EqB_g-96" style="edgeStyle=orthogonalEdgeStyle;rounded=0;orthogonalLoop=1;jettySize=auto;html=1;exitX=0;exitY=0.5;exitDx=0;exitDy=0;exitPerimeter=0;entryX=0.5;entryY=0;entryDx=0;entryDy=0;fontSize=16;" parent="1" source="_sLUusYJ3twU9n-EqB_g-97" target="_sLUusYJ3twU9n-EqB_g-86" edge="1">
          <mxGeometry relative="1" as="geometry" />
        </mxCell>
        <mxCell id="_sLUusYJ3twU9n-EqB_g-97" value="" style="strokeWidth=2;html=1;shape=mxgraph.flowchart.annotation_2;align=left;labelPosition=right;pointerEvents=1;fontSize=16;rotation=-90;" parent="1" vertex="1">
          <mxGeometry x="1889.5" y="85" width="50" height="450" as="geometry" />
        </mxCell>
        <mxCell id="_sLUusYJ3twU9n-EqB_g-98" value="" style="rounded=1;whiteSpace=wrap;html=1;strokeColor=#000000;dashed=1;fillColor=none;" parent="1" vertex="1">
          <mxGeometry x="2690" y="760" width="230" height="320" as="geometry" />
        </mxCell>
        <mxCell id="_sLUusYJ3twU9n-EqB_g-99" value="" style="rounded=1;whiteSpace=wrap;html=1;strokeColor=#000000;dashed=1;fillColor=none;" parent="1" vertex="1">
          <mxGeometry x="2430" y="760" width="230" height="320" as="geometry" />
        </mxCell>
        <mxCell id="_sLUusYJ3twU9n-EqB_g-100" style="edgeStyle=orthogonalEdgeStyle;rounded=0;orthogonalLoop=1;jettySize=auto;html=1;entryX=0.5;entryY=0;entryDx=0;entryDy=0;" parent="1" source="_sLUusYJ3twU9n-EqB_g-102" edge="1">
          <mxGeometry relative="1" as="geometry">
            <mxPoint x="2546.2499999999995" y="760" as="targetPoint" />
          </mxGeometry>
        </mxCell>
        <mxCell id="_sLUusYJ3twU9n-EqB_g-101" style="edgeStyle=orthogonalEdgeStyle;rounded=0;orthogonalLoop=1;jettySize=auto;html=1;exitX=0.5;exitY=1;exitDx=0;exitDy=0;" parent="1" source="_sLUusYJ3twU9n-EqB_g-102" edge="1">
          <mxGeometry relative="1" as="geometry">
            <mxPoint x="2816.235294117647" y="760" as="targetPoint" />
          </mxGeometry>
        </mxCell>
        <mxCell id="_sLUusYJ3twU9n-EqB_g-102" value="" style="rounded=1;whiteSpace=wrap;html=1;strokeColor=#000000;dashed=1;fillColor=none;" parent="1" vertex="1">
          <mxGeometry x="2432" y="380" width="487" height="320" as="geometry" />
        </mxCell>
        <mxCell id="_sLUusYJ3twU9n-EqB_g-104" value="Выходные материалы" style="text;html=1;strokeColor=none;fillColor=none;align=center;verticalAlign=middle;whiteSpace=wrap;rounded=0;" parent="1" vertex="1">
          <mxGeometry x="2715" y="430" width="155" height="20" as="geometry" />
        </mxCell>
        <mxCell id="_sLUusYJ3twU9n-EqB_g-106" value="Порядок сдачи работ" style="rounded=0;whiteSpace=wrap;html=1;" parent="1" vertex="1">
          <mxGeometry x="2490" y="470" width="120" height="60" as="geometry" />
        </mxCell>
        <mxCell id="_sLUusYJ3twU9n-EqB_g-107" value="Процессы" style="text;html=1;strokeColor=none;fillColor=none;align=center;verticalAlign=middle;whiteSpace=wrap;rounded=0;" parent="1" vertex="1">
          <mxGeometry x="2472.5" y="430" width="155" height="20" as="geometry" />
        </mxCell>
        <mxCell id="_sLUusYJ3twU9n-EqB_g-109" value="Правила" style="text;html=1;strokeColor=none;fillColor=none;align=center;verticalAlign=middle;whiteSpace=wrap;rounded=0;" parent="1" vertex="1">
          <mxGeometry x="2735" y="800" width="155" height="20" as="geometry" />
        </mxCell>
        <mxCell id="_sLUusYJ3twU9n-EqB_g-111" value="Регламенты" style="text;html=1;strokeColor=none;fillColor=none;align=center;verticalAlign=middle;whiteSpace=wrap;rounded=0;" parent="1" vertex="1">
          <mxGeometry x="2465" y="800" width="155" height="20" as="geometry" />
        </mxCell>
        <mxCell id="_sLUusYJ3twU9n-EqB_g-112" style="edgeStyle=orthogonalEdgeStyle;rounded=0;orthogonalLoop=1;jettySize=auto;html=1;exitX=0;exitY=0.5;exitDx=0;exitDy=0;exitPerimeter=0;entryX=0.5;entryY=0;entryDx=0;entryDy=0;fontSize=16;" parent="1" source="_sLUusYJ3twU9n-EqB_g-113" target="_sLUusYJ3twU9n-EqB_g-102" edge="1">
          <mxGeometry relative="1" as="geometry" />
        </mxCell>
        <mxCell id="_sLUusYJ3twU9n-EqB_g-113" value="" style="strokeWidth=2;html=1;shape=mxgraph.flowchart.annotation_2;align=left;labelPosition=right;pointerEvents=1;fontSize=16;rotation=-90;" parent="1" vertex="1">
          <mxGeometry x="2649.5" y="85" width="50" height="450" as="geometry" />
        </mxCell>
        <mxCell id="Mdg6IsK0-AXieFcoMjiG-1" value="Тестиование" style="rounded=0;whiteSpace=wrap;html=1;strokeColor=#000000;" parent="1" vertex="1">
          <mxGeometry x="2060" y="170" width="120" height="60" as="geometry" />
        </mxCell>
        <mxCell id="69DBq-WkZiLJgo02Ty5v-1" value="" style="endArrow=none;dashed=1;html=1;fontSize=16;" parent="1" edge="1">
          <mxGeometry width="50" height="50" relative="1" as="geometry">
            <mxPoint x="-40" y="330" as="sourcePoint" />
            <mxPoint x="-40" y="70" as="targetPoint" />
          </mxGeometry>
        </mxCell>
        <mxCell id="69DBq-WkZiLJgo02Ty5v-2" value="" style="strokeWidth=2;html=1;shape=mxgraph.flowchart.annotation_2;align=left;labelPosition=right;pointerEvents=1;fontSize=16;rotation=-90;" parent="1" vertex="1">
          <mxGeometry x="-350" y="85" width="50" height="450" as="geometry" />
        </mxCell>
        <mxCell id="69DBq-WkZiLJgo02Ty5v-3" value="Этап написания ГК" style="text;html=1;strokeColor=none;fillColor=none;align=center;verticalAlign=middle;whiteSpace=wrap;rounded=0;" parent="1" vertex="1">
          <mxGeometry x="-400" y="120" width="155" height="20" as="geometry" />
        </mxCell>
        <mxCell id="69DBq-WkZiLJgo02Ty5v-5" style="edgeStyle=orthogonalEdgeStyle;rounded=0;orthogonalLoop=1;jettySize=auto;html=1;entryX=0;entryY=0.5;entryDx=0;entryDy=0;startArrow=none;startFill=0;endArrow=classicThin;endFill=1;exitX=1;exitY=0.5;exitDx=0;exitDy=0;" parent="1" source="69DBq-WkZiLJgo02Ty5v-7" target="1mng_QMHvOpX0eT8RKld-5" edge="1">
          <mxGeometry relative="1" as="geometry">
            <mxPoint x="-100" y="200" as="sourcePoint" />
            <Array as="points" />
          </mxGeometry>
        </mxCell>
        <mxCell id="69DBq-WkZiLJgo02Ty5v-7" value="??????????????" style="rounded=0;whiteSpace=wrap;html=1;fillColor=#FFFFFF;" parent="1" vertex="1">
          <mxGeometry x="-382" y="170" width="120" height="60" as="geometry" />
        </mxCell>
        <mxCell id="F6A8z5wkKTkSr_jPnCP2-5" style="edgeStyle=orthogonalEdgeStyle;rounded=0;orthogonalLoop=1;jettySize=auto;html=1;entryX=0;entryY=0.5;entryDx=0;entryDy=0;exitX=0.5;exitY=0;exitDx=0;exitDy=0;exitPerimeter=0;" edge="1" parent="1" source="F6A8z5wkKTkSr_jPnCP2-1" target="F6A8z5wkKTkSr_jPnCP2-3">
          <mxGeometry relative="1" as="geometry">
            <Array as="points">
              <mxPoint x="524" y="163" />
            </Array>
          </mxGeometry>
        </mxCell>
        <mxCell id="F6A8z5wkKTkSr_jPnCP2-6" value="Проект" style="edgeLabel;html=1;align=center;verticalAlign=middle;resizable=0;points=[];" vertex="1" connectable="0" parent="F6A8z5wkKTkSr_jPnCP2-5">
          <mxGeometry x="-0.0727" y="-1" relative="1" as="geometry">
            <mxPoint x="3" y="-2" as="offset" />
          </mxGeometry>
        </mxCell>
        <mxCell id="F6A8z5wkKTkSr_jPnCP2-1" value="" style="points=[[0.25,0.25,0],[0.5,0,0],[0.75,0.25,0],[1,0.5,0],[0.75,0.75,0],[0.5,1,0],[0.25,0.75,0],[0,0.5,0]];shape=mxgraph.bpmn.gateway2;html=1;verticalLabelPosition=bottom;labelBackgroundColor=#ffffff;verticalAlign=top;align=center;perimeter=rhombusPerimeter;outlineConnect=0;outline=none;symbol=none;gwType=exclusive;" vertex="1" parent="1">
          <mxGeometry x="499" y="175" width="50" height="50" as="geometry" />
        </mxCell>
        <mxCell id="F6A8z5wkKTkSr_jPnCP2-2" value="" style="edgeStyle=orthogonalEdgeStyle;rounded=0;orthogonalLoop=1;jettySize=auto;html=1;fontSize=16;endArrow=none;" edge="1" parent="1" source="1mng_QMHvOpX0eT8RKld-6" target="F6A8z5wkKTkSr_jPnCP2-1">
          <mxGeometry relative="1" as="geometry">
            <mxPoint x="465" y="200" as="sourcePoint" />
            <mxPoint x="590" y="260" as="targetPoint" />
          </mxGeometry>
        </mxCell>
        <mxCell id="F6A8z5wkKTkSr_jPnCP2-3" value="Фиксирование требований в Jira" style="rounded=0;whiteSpace=wrap;html=1;" vertex="1" parent="1">
          <mxGeometry x="590" y="133" width="120" height="60" as="geometry" />
        </mxCell>
      </root>
    </mxGraphModel>
  </diagram>
  <diagram id="v-X77zJHvPHhkVbQSc2r" name="Подготовительный этап">
    <mxGraphModel dx="1382" dy="1943" grid="1" gridSize="10" guides="1" tooltips="1" connect="1" arrows="1" fold="1" page="1" pageScale="1" pageWidth="827" pageHeight="1169" math="0" shadow="0">
      <root>
        <mxCell id="3bUT5csseKGplUfXDabb-0" />
        <mxCell id="3bUT5csseKGplUfXDabb-1" parent="3bUT5csseKGplUfXDabb-0" />
        <mxCell id="YZKkqxeADZLwmNbFVjpf-16" value="Подготовительный этап" style="swimlane;html=1;childLayout=stackLayout;resizeParent=1;resizeParentMax=0;horizontal=1;startSize=20;horizontalStack=0;" parent="3bUT5csseKGplUfXDabb-1" vertex="1">
          <mxGeometry x="30" width="1830" height="940" as="geometry" />
        </mxCell>
        <mxCell id="YZKkqxeADZLwmNbFVjpf-17" value="Руководитель отдела" style="swimlane;html=1;startSize=20;horizontal=0;" parent="YZKkqxeADZLwmNbFVjpf-16" vertex="1">
          <mxGeometry y="20" width="1830" height="290" as="geometry" />
        </mxCell>
        <mxCell id="ysmaoYiSz5x9Hn19Pvg6-5" style="edgeStyle=orthogonalEdgeStyle;rounded=0;orthogonalLoop=1;jettySize=auto;html=1;exitX=1;exitY=0.5;exitDx=0;exitDy=0;exitPerimeter=0;" parent="YZKkqxeADZLwmNbFVjpf-17" source="E49rKe3DuRojxuS_fLeT-8" target="E49rKe3DuRojxuS_fLeT-26" edge="1">
          <mxGeometry relative="1" as="geometry">
            <mxPoint x="135" y="220" as="sourcePoint" />
            <mxPoint x="200" y="220" as="targetPoint" />
            <Array as="points" />
          </mxGeometry>
        </mxCell>
        <mxCell id="Wjl2iIaUURDsBagm4MVG-1" style="edgeStyle=orthogonalEdgeStyle;rounded=0;orthogonalLoop=1;jettySize=auto;html=1;exitX=1;exitY=0.5;exitDx=0;exitDy=0;exitPerimeter=0;" parent="YZKkqxeADZLwmNbFVjpf-17" source="E49rKe3DuRojxuS_fLeT-4" target="Wjl2iIaUURDsBagm4MVG-0" edge="1">
          <mxGeometry relative="1" as="geometry">
            <mxPoint x="500" y="220" as="sourcePoint" />
          </mxGeometry>
        </mxCell>
        <mxCell id="Wjl2iIaUURDsBagm4MVG-3" style="edgeStyle=orthogonalEdgeStyle;rounded=0;orthogonalLoop=1;jettySize=auto;html=1;" parent="YZKkqxeADZLwmNbFVjpf-17" source="Wjl2iIaUURDsBagm4MVG-0" target="Wjl2iIaUURDsBagm4MVG-13" edge="1">
          <mxGeometry relative="1" as="geometry">
            <mxPoint x="730" y="220" as="targetPoint" />
            <Array as="points">
              <mxPoint x="594" y="220" />
            </Array>
          </mxGeometry>
        </mxCell>
        <mxCell id="Wjl2iIaUURDsBagm4MVG-12" value="Да" style="edgeLabel;html=1;align=center;verticalAlign=middle;resizable=0;points=[];" parent="Wjl2iIaUURDsBagm4MVG-3" vertex="1" connectable="0">
          <mxGeometry x="-0.2823" y="1" relative="1" as="geometry">
            <mxPoint x="-1" y="-30" as="offset" />
          </mxGeometry>
        </mxCell>
        <mxCell id="Wjl2iIaUURDsBagm4MVG-15" style="edgeStyle=orthogonalEdgeStyle;rounded=0;orthogonalLoop=1;jettySize=auto;html=1;entryX=0;entryY=0.5;entryDx=0;entryDy=0;entryPerimeter=0;" parent="YZKkqxeADZLwmNbFVjpf-17" source="Wjl2iIaUURDsBagm4MVG-0" target="E49rKe3DuRojxuS_fLeT-50" edge="1">
          <mxGeometry relative="1" as="geometry">
            <Array as="points">
              <mxPoint x="710" y="95" />
              <mxPoint x="710" y="95" />
            </Array>
            <mxPoint x="660" y="100" as="sourcePoint" />
            <mxPoint x="728.3200000000002" y="120.67999999999984" as="targetPoint" />
          </mxGeometry>
        </mxCell>
        <mxCell id="Wjl2iIaUURDsBagm4MVG-17" value="Нет" style="edgeLabel;html=1;align=center;verticalAlign=middle;resizable=0;points=[];" parent="Wjl2iIaUURDsBagm4MVG-15" vertex="1" connectable="0">
          <mxGeometry x="-0.9157" y="2" relative="1" as="geometry">
            <mxPoint x="20" as="offset" />
          </mxGeometry>
        </mxCell>
        <mxCell id="Wjl2iIaUURDsBagm4MVG-0" value="Необходимо создать&lt;br&gt;новые проекты?" style="shape=mxgraph.bpmn.gateway2;html=1;verticalLabelPosition=bottom;labelBackgroundColor=#ffffff;verticalAlign=top;align=center;perimeter=rhombusPerimeter;outlineConnect=0;outline=none;symbol=none;gwType=exclusive;" parent="YZKkqxeADZLwmNbFVjpf-17" vertex="1">
          <mxGeometry x="569" y="70" width="50" height="50" as="geometry" />
        </mxCell>
        <mxCell id="Wjl2iIaUURDsBagm4MVG-16" style="edgeStyle=orthogonalEdgeStyle;rounded=0;orthogonalLoop=1;jettySize=auto;html=1;entryX=0.5;entryY=1;entryDx=0;entryDy=0;entryPerimeter=0;" parent="YZKkqxeADZLwmNbFVjpf-17" source="Wjl2iIaUURDsBagm4MVG-13" target="E49rKe3DuRojxuS_fLeT-50" edge="1">
          <mxGeometry relative="1" as="geometry">
            <mxPoint x="790" y="159" as="targetPoint" />
          </mxGeometry>
        </mxCell>
        <mxCell id="Wjl2iIaUURDsBagm4MVG-13" value="Инициирует создание&#xa;нового проекта" style="shape=mxgraph.bpmn.task;rectStyle=rounded;size=10;taskMarker=abstract;isLoopSub=1;" parent="YZKkqxeADZLwmNbFVjpf-17" vertex="1">
          <mxGeometry x="730" y="180" width="120" height="80" as="geometry" />
        </mxCell>
        <mxCell id="Wjl2iIaUURDsBagm4MVG-21" style="edgeStyle=orthogonalEdgeStyle;rounded=0;orthogonalLoop=1;jettySize=auto;html=1;entryX=0.5;entryY=0;entryDx=0;entryDy=0;entryPerimeter=0;" parent="YZKkqxeADZLwmNbFVjpf-17" target="E49rKe3DuRojxuS_fLeT-65" edge="1">
          <mxGeometry relative="1" as="geometry">
            <mxPoint x="850" y="119" as="sourcePoint" />
            <mxPoint x="980" y="225" as="targetPoint" />
          </mxGeometry>
        </mxCell>
        <mxCell id="E49rKe3DuRojxuS_fLeT-4" value="Определяет перечень&#xa;затронутых&#xa;проектов" style="points=[[0.25,0,0],[0.5,0,0],[0.75,0,0],[1,0.25,0],[1,0.5,0],[1,0.75,0],[0.75,1,0],[0.5,1,0],[0.25,1,0],[0,0.75,0],[0,0.5,0],[0,0.25,0]];shape=mxgraph.bpmn.task;rectStyle=rounded;size=10;taskMarker=abstract;isLoopSub=1;" parent="YZKkqxeADZLwmNbFVjpf-17" vertex="1">
          <mxGeometry x="360" y="55" width="120" height="80" as="geometry" />
        </mxCell>
        <mxCell id="E49rKe3DuRojxuS_fLeT-5" value="Таблица работ&lt;br style=&quot;padding: 0px ; margin: 0px&quot;&gt;по проектам" style="shape=datastore;whiteSpace=wrap;html=1;labelPosition=center;verticalLabelPosition=bottom;align=center;verticalAlign=top;" parent="YZKkqxeADZLwmNbFVjpf-17" vertex="1">
          <mxGeometry x="1000" y="40" width="100" height="70" as="geometry" />
        </mxCell>
        <mxCell id="qFBfg2p7GqOk__bsmwk6-74" style="edgeStyle=orthogonalEdgeStyle;rounded=0;orthogonalLoop=1;jettySize=auto;html=1;entryX=0.5;entryY=1;entryDx=0;entryDy=0;entryPerimeter=0;dashed=1;startArrow=none;startFill=0;endArrow=classicThin;endFill=1;" parent="YZKkqxeADZLwmNbFVjpf-17" source="E49rKe3DuRojxuS_fLeT-6" target="E49rKe3DuRojxuS_fLeT-4" edge="1">
          <mxGeometry relative="1" as="geometry" />
        </mxCell>
        <mxCell id="E49rKe3DuRojxuS_fLeT-6" value="Госконтракт" style="shape=mxgraph.bpmn.data;labelPosition=center;verticalLabelPosition=bottom;align=center;verticalAlign=top;size=15;bpmnTransferType=input;" parent="YZKkqxeADZLwmNbFVjpf-17" vertex="1">
          <mxGeometry x="400" y="170" width="40" height="60" as="geometry" />
        </mxCell>
        <mxCell id="E49rKe3DuRojxuS_fLeT-8" value="Компания победила&lt;br&gt;в тендере" style="points=[[0.145,0.145,0],[0.5,0,0],[0.855,0.145,0],[1,0.5,0],[0.855,0.855,0],[0.5,1,0],[0.145,0.855,0],[0,0.5,0]];shape=mxgraph.bpmn.event;html=1;verticalLabelPosition=bottom;labelBackgroundColor=#ffffff;verticalAlign=top;align=center;perimeter=ellipsePerimeter;outlineConnect=0;aspect=fixed;outline=standard;symbol=conditional;" parent="YZKkqxeADZLwmNbFVjpf-17" vertex="1">
          <mxGeometry x="80" y="70" width="50" height="50" as="geometry" />
        </mxCell>
        <mxCell id="E49rKe3DuRojxuS_fLeT-25" style="edgeStyle=orthogonalEdgeStyle;rounded=0;orthogonalLoop=1;jettySize=auto;html=1;startArrow=none;startFill=0;endArrow=classicThin;endFill=1;exitX=1;exitY=0.5;exitDx=0;exitDy=0;exitPerimeter=0;entryX=0;entryY=0.5;entryDx=0;entryDy=0;entryPerimeter=0;" parent="YZKkqxeADZLwmNbFVjpf-17" source="E49rKe3DuRojxuS_fLeT-26" target="E49rKe3DuRojxuS_fLeT-4" edge="1">
          <mxGeometry relative="1" as="geometry">
            <mxPoint x="320" y="220" as="sourcePoint" />
            <Array as="points">
              <mxPoint x="340" y="95" />
              <mxPoint x="340" y="95" />
            </Array>
          </mxGeometry>
        </mxCell>
        <mxCell id="E49rKe3DuRojxuS_fLeT-26" value="Создаёт задачу&#xa;в Jira" style="points=[[0.25,0,0],[0.5,0,0],[0.75,0,0],[1,0.25,0],[1,0.5,0],[1,0.75,0],[0.75,1,0],[0.5,1,0],[0.25,1,0],[0,0.75,0],[0,0.5,0],[0,0.25,0]];shape=mxgraph.bpmn.task;rectStyle=rounded;size=10;taskMarker=businessRule;" parent="YZKkqxeADZLwmNbFVjpf-17" vertex="1">
          <mxGeometry x="200" y="55" width="120" height="80" as="geometry" />
        </mxCell>
        <mxCell id="E49rKe3DuRojxuS_fLeT-66" style="edgeStyle=orthogonalEdgeStyle;rounded=0;orthogonalLoop=1;jettySize=auto;html=1;entryX=0;entryY=0.5;entryDx=0;entryDy=0;startArrow=none;startFill=0;endArrow=classicThin;endFill=1;dashed=1;exitX=1;exitY=0.25;exitDx=0;exitDy=0;exitPerimeter=0;" parent="YZKkqxeADZLwmNbFVjpf-17" source="E49rKe3DuRojxuS_fLeT-50" target="E49rKe3DuRojxuS_fLeT-5" edge="1">
          <mxGeometry relative="1" as="geometry">
            <Array as="points">
              <mxPoint x="930" y="75" />
              <mxPoint x="930" y="75" />
            </Array>
          </mxGeometry>
        </mxCell>
        <mxCell id="E49rKe3DuRojxuS_fLeT-50" value="Распределяет работы&#xa;ГК по проектам" style="points=[[0.25,0,0],[0.5,0,0],[0.75,0,0],[1,0.25,0],[1,0.5,0],[1,0.75,0],[0.75,1,0],[0.5,1,0],[0.25,1,0],[0,0.75,0],[0,0.5,0],[0,0.25,0]];shape=mxgraph.bpmn.task;rectStyle=rounded;size=10;taskMarker=abstract;isLoopSub=1;" parent="YZKkqxeADZLwmNbFVjpf-17" vertex="1">
          <mxGeometry x="730" y="55" width="120" height="80" as="geometry" />
        </mxCell>
        <mxCell id="E49rKe3DuRojxuS_fLeT-65" value="Сообщает РП&#xa;о назначеннных&#xa;проектах" style="points=[[0.25,0,0],[0.5,0,0],[0.75,0,0],[1,0.25,0],[1,0.5,0],[1,0.75,0],[0.75,1,0],[0.5,1,0],[0.25,1,0],[0,0.75,0],[0,0.5,0],[0,0.25,0]];shape=mxgraph.bpmn.task;rectStyle=rounded;size=10;taskMarker=send;" parent="YZKkqxeADZLwmNbFVjpf-17" vertex="1">
          <mxGeometry x="910" y="180" width="120" height="80" as="geometry" />
        </mxCell>
        <mxCell id="SvZlN-QsV_ueHd5v5usI-4" style="edgeStyle=orthogonalEdgeStyle;rounded=0;orthogonalLoop=1;jettySize=auto;html=1;exitX=1;exitY=0.5;exitDx=0;exitDy=0;exitPerimeter=0;" parent="YZKkqxeADZLwmNbFVjpf-16" source="qFBfg2p7GqOk__bsmwk6-61" target="SvZlN-QsV_ueHd5v5usI-3" edge="1">
          <mxGeometry relative="1" as="geometry">
            <mxPoint x="1380" y="820" as="sourcePoint" />
          </mxGeometry>
        </mxCell>
        <mxCell id="SvZlN-QsV_ueHd5v5usI-10" style="edgeStyle=orthogonalEdgeStyle;rounded=0;orthogonalLoop=1;jettySize=auto;html=1;" parent="YZKkqxeADZLwmNbFVjpf-16" source="SvZlN-QsV_ueHd5v5usI-7" edge="1">
          <mxGeometry relative="1" as="geometry">
            <mxPoint x="1350" y="690" as="targetPoint" />
          </mxGeometry>
        </mxCell>
        <mxCell id="E49rKe3DuRojxuS_fLeT-68" style="edgeStyle=orthogonalEdgeStyle;rounded=0;orthogonalLoop=1;jettySize=auto;html=1;startArrow=none;startFill=0;endArrow=classicThin;endFill=1;" parent="YZKkqxeADZLwmNbFVjpf-16" source="E49rKe3DuRojxuS_fLeT-65" target="E49rKe3DuRojxuS_fLeT-67" edge="1">
          <mxGeometry relative="1" as="geometry" />
        </mxCell>
        <mxCell id="YZKkqxeADZLwmNbFVjpf-18" value="Руководитель проекта" style="swimlane;html=1;startSize=20;horizontal=0;" parent="YZKkqxeADZLwmNbFVjpf-16" vertex="1">
          <mxGeometry y="310" width="1830" height="350" as="geometry" />
        </mxCell>
        <mxCell id="qFBfg2p7GqOk__bsmwk6-25" style="edgeStyle=orthogonalEdgeStyle;rounded=0;orthogonalLoop=1;jettySize=auto;html=1;entryX=0.54;entryY=0.02;entryDx=0;entryDy=0;entryPerimeter=0;dashed=1;startArrow=none;startFill=0;endArrow=classicThin;endFill=1;" parent="YZKkqxeADZLwmNbFVjpf-18" source="Wjl2iIaUURDsBagm4MVG-25" target="SvZlN-QsV_ueHd5v5usI-11" edge="1">
          <mxGeometry relative="1" as="geometry" />
        </mxCell>
        <mxCell id="qFBfg2p7GqOk__bsmwk6-71" style="edgeStyle=orthogonalEdgeStyle;rounded=0;orthogonalLoop=1;jettySize=auto;html=1;entryX=1;entryY=0.5;entryDx=0;entryDy=0;dashed=1;startArrow=none;startFill=0;endArrow=classicThin;endFill=1;" parent="YZKkqxeADZLwmNbFVjpf-18" source="Wjl2iIaUURDsBagm4MVG-25" target="qFBfg2p7GqOk__bsmwk6-69" edge="1">
          <mxGeometry relative="1" as="geometry">
            <Array as="points">
              <mxPoint x="1700" y="65" />
            </Array>
          </mxGeometry>
        </mxCell>
        <mxCell id="Wjl2iIaUURDsBagm4MVG-25" value="Определяет&#xa;приоритет для &#xa;требований и блоков" style="shape=mxgraph.bpmn.task;rectStyle=rounded;size=10;taskMarker=abstract;" parent="YZKkqxeADZLwmNbFVjpf-18" vertex="1">
          <mxGeometry x="1640" y="160" width="120" height="80" as="geometry" />
        </mxCell>
        <mxCell id="SvZlN-QsV_ueHd5v5usI-8" style="edgeStyle=orthogonalEdgeStyle;rounded=0;orthogonalLoop=1;jettySize=auto;html=1;" parent="YZKkqxeADZLwmNbFVjpf-18" source="SvZlN-QsV_ueHd5v5usI-3" target="SvZlN-QsV_ueHd5v5usI-7" edge="1">
          <mxGeometry relative="1" as="geometry" />
        </mxCell>
        <mxCell id="qFBfg2p7GqOk__bsmwk6-20" style="edgeStyle=orthogonalEdgeStyle;rounded=0;orthogonalLoop=1;jettySize=auto;html=1;startArrow=none;startFill=0;endArrow=classicThin;endFill=1;dashed=1;" parent="YZKkqxeADZLwmNbFVjpf-18" source="SvZlN-QsV_ueHd5v5usI-3" edge="1">
          <mxGeometry relative="1" as="geometry">
            <mxPoint x="1150" y="100" as="targetPoint" />
          </mxGeometry>
        </mxCell>
        <mxCell id="SvZlN-QsV_ueHd5v5usI-3" value="Формирует &#xa;список требований&#xa;для согласования" style="shape=mxgraph.bpmn.task;rectStyle=rounded;size=10;taskMarker=abstract;" parent="YZKkqxeADZLwmNbFVjpf-18" vertex="1">
          <mxGeometry x="1090" y="160" width="120" height="80" as="geometry" />
        </mxCell>
        <mxCell id="qFBfg2p7GqOk__bsmwk6-23" style="edgeStyle=orthogonalEdgeStyle;rounded=0;orthogonalLoop=1;jettySize=auto;html=1;dashed=1;startArrow=none;startFill=0;endArrow=classicThin;endFill=1;" parent="YZKkqxeADZLwmNbFVjpf-18" source="SvZlN-QsV_ueHd5v5usI-7" target="qFBfg2p7GqOk__bsmwk6-22" edge="1">
          <mxGeometry relative="1" as="geometry" />
        </mxCell>
        <mxCell id="SvZlN-QsV_ueHd5v5usI-7" value="Согласовывает&#xa;требования &#xa;с заказчиком" style="shape=mxgraph.bpmn.task;rectStyle=rounded;size=10;taskMarker=abstract;isLoopSub=1;" parent="YZKkqxeADZLwmNbFVjpf-18" vertex="1">
          <mxGeometry x="1290" y="160" width="120" height="80" as="geometry" />
        </mxCell>
        <mxCell id="qFBfg2p7GqOk__bsmwk6-2" style="edgeStyle=orthogonalEdgeStyle;rounded=0;orthogonalLoop=1;jettySize=auto;html=1;entryX=0.5;entryY=0;entryDx=0;entryDy=0;entryPerimeter=0;startArrow=none;startFill=0;endArrow=classicThin;endFill=1;" parent="YZKkqxeADZLwmNbFVjpf-18" source="E49rKe3DuRojxuS_fLeT-67" target="qFBfg2p7GqOk__bsmwk6-1" edge="1">
          <mxGeometry relative="1" as="geometry" />
        </mxCell>
        <mxCell id="E49rKe3DuRojxuS_fLeT-67" value="Ознакамливается с&#xa;перечнем работ по &#xa;связанным проектам" style="points=[[0.25,0,0],[0.5,0,0],[0.75,0,0],[1,0.25,0],[1,0.5,0],[1,0.75,0],[0.75,1,0],[0.5,1,0],[0.25,1,0],[0,0.75,0],[0,0.5,0],[0,0.25,0]];shape=mxgraph.bpmn.task;rectStyle=rounded;size=10;taskMarker=receive;" parent="YZKkqxeADZLwmNbFVjpf-18" vertex="1">
          <mxGeometry x="910" y="30" width="120" height="80" as="geometry" />
        </mxCell>
        <mxCell id="qFBfg2p7GqOk__bsmwk6-18" style="edgeStyle=orthogonalEdgeStyle;rounded=0;orthogonalLoop=1;jettySize=auto;html=1;startArrow=none;startFill=0;endArrow=classicThin;endFill=1;" parent="YZKkqxeADZLwmNbFVjpf-18" source="R8x4DwBPR4qB70nut4_T-5" edge="1">
          <mxGeometry relative="1" as="geometry">
            <mxPoint x="1640" y="200" as="targetPoint" />
          </mxGeometry>
        </mxCell>
        <mxCell id="qFBfg2p7GqOk__bsmwk6-70" style="edgeStyle=orthogonalEdgeStyle;rounded=0;orthogonalLoop=1;jettySize=auto;html=1;dashed=1;startArrow=none;startFill=0;endArrow=classicThin;endFill=1;" parent="YZKkqxeADZLwmNbFVjpf-18" source="R8x4DwBPR4qB70nut4_T-5" target="qFBfg2p7GqOk__bsmwk6-69" edge="1">
          <mxGeometry relative="1" as="geometry" />
        </mxCell>
        <mxCell id="R8x4DwBPR4qB70nut4_T-5" value="Распределяет&#xa;блоки&#xa;по аналитикам" style="shape=mxgraph.bpmn.task;rectStyle=rounded;size=10;taskMarker=abstract;" parent="YZKkqxeADZLwmNbFVjpf-18" vertex="1">
          <mxGeometry x="1470" y="160" width="120" height="80" as="geometry" />
        </mxCell>
        <mxCell id="qFBfg2p7GqOk__bsmwk6-4" style="edgeStyle=orthogonalEdgeStyle;rounded=0;orthogonalLoop=1;jettySize=auto;html=1;entryX=0.5;entryY=0;entryDx=0;entryDy=0;entryPerimeter=0;startArrow=none;startFill=0;endArrow=classicThin;endFill=1;" parent="YZKkqxeADZLwmNbFVjpf-18" source="qFBfg2p7GqOk__bsmwk6-1" target="qFBfg2p7GqOk__bsmwk6-42" edge="1">
          <mxGeometry relative="1" as="geometry">
            <mxPoint x="970" y="260" as="targetPoint" />
          </mxGeometry>
        </mxCell>
        <mxCell id="qFBfg2p7GqOk__bsmwk6-1" value="Создаёт задачу&#xa;в Jira на регистрацию&#xa;всех требований&#xa;проекта" style="points=[[0.25,0,0],[0.5,0,0],[0.75,0,0],[1,0.25,0],[1,0.5,0],[1,0.75,0],[0.75,1,0],[0.5,1,0],[0.25,1,0],[0,0.75,0],[0,0.5,0],[0,0.25,0]];shape=mxgraph.bpmn.task;rectStyle=rounded;size=10;taskMarker=businessRule;fillColor=#FFFFFF;" parent="YZKkqxeADZLwmNbFVjpf-18" vertex="1">
          <mxGeometry x="910" y="160" width="120" height="80" as="geometry" />
        </mxCell>
        <mxCell id="SvZlN-QsV_ueHd5v5usI-11" value="" style="shape=mxgraph.bpmn.event;html=1;verticalLabelPosition=bottom;labelBackgroundColor=#ffffff;verticalAlign=top;align=center;perimeter=ellipsePerimeter;outlineConnect=0;aspect=fixed;outline=end;symbol=terminate2;" parent="YZKkqxeADZLwmNbFVjpf-18" vertex="1">
          <mxGeometry x="1673" y="276" width="50" height="50" as="geometry" />
        </mxCell>
        <mxCell id="qFBfg2p7GqOk__bsmwk6-21" value="Список требований&#xa;для согласования" style="shape=mxgraph.bpmn.data;labelPosition=center;verticalLabelPosition=bottom;align=center;verticalAlign=top;size=15;bpmnTransferType=input;fillColor=#FFFFFF;" parent="YZKkqxeADZLwmNbFVjpf-18" vertex="1">
          <mxGeometry x="1130" y="40" width="40" height="60" as="geometry" />
        </mxCell>
        <mxCell id="qFBfg2p7GqOk__bsmwk6-22" value="Список согласованных&#xa;требований" style="shape=mxgraph.bpmn.data;labelPosition=center;verticalLabelPosition=bottom;align=center;verticalAlign=top;size=15;bpmnTransferType=output;fillColor=#FFFFFF;" parent="YZKkqxeADZLwmNbFVjpf-18" vertex="1">
          <mxGeometry x="1330" y="40" width="40" height="60" as="geometry" />
        </mxCell>
        <mxCell id="qFBfg2p7GqOk__bsmwk6-42" value="" style="points=[[0.145,0.145,0],[0.5,0,0],[0.855,0.145,0],[1,0.5,0],[0.855,0.855,0],[0.5,1,0],[0.145,0.855,0],[0,0.5,0]];shape=mxgraph.bpmn.event;html=1;verticalLabelPosition=bottom;labelBackgroundColor=#ffffff;verticalAlign=top;align=center;perimeter=ellipsePerimeter;outlineConnect=0;aspect=fixed;outline=catching;symbol=message;fillColor=#FFFFFF;" parent="YZKkqxeADZLwmNbFVjpf-18" vertex="1">
          <mxGeometry x="945" y="275" width="50" height="50" as="geometry" />
        </mxCell>
        <mxCell id="qFBfg2p7GqOk__bsmwk6-69" value="Таблица требований" style="shape=datastore;whiteSpace=wrap;html=1;labelPosition=center;verticalLabelPosition=bottom;align=center;verticalAlign=top;" parent="YZKkqxeADZLwmNbFVjpf-18" vertex="1">
          <mxGeometry x="1480" y="30" width="100" height="70" as="geometry" />
        </mxCell>
        <mxCell id="qFBfg2p7GqOk__bsmwk6-7" value="Список задач в Jira" style="shape=datastore;whiteSpace=wrap;html=1;labelPosition=center;verticalLabelPosition=bottom;align=center;verticalAlign=top;" parent="YZKkqxeADZLwmNbFVjpf-18" vertex="1">
          <mxGeometry x="214.5" y="165" width="91" height="70" as="geometry" />
        </mxCell>
        <mxCell id="qFBfg2p7GqOk__bsmwk6-9" style="edgeStyle=orthogonalEdgeStyle;rounded=0;orthogonalLoop=1;jettySize=auto;html=1;dashed=1;startArrow=none;startFill=0;endArrow=classicThin;endFill=1;" parent="YZKkqxeADZLwmNbFVjpf-18" source="qFBfg2p7GqOk__bsmwk6-1" target="qFBfg2p7GqOk__bsmwk6-7" edge="1">
          <mxGeometry relative="1" as="geometry">
            <mxPoint x="1080" y="190" as="targetPoint" />
          </mxGeometry>
        </mxCell>
        <mxCell id="SvZlN-QsV_ueHd5v5usI-12" style="edgeStyle=orthogonalEdgeStyle;rounded=0;orthogonalLoop=1;jettySize=auto;html=1;startArrow=none;entryX=0.5;entryY=0.979;entryDx=0;entryDy=0;entryPerimeter=0;exitX=0.5;exitY=0;exitDx=0;exitDy=0;exitPerimeter=0;" parent="YZKkqxeADZLwmNbFVjpf-16" target="R8x4DwBPR4qB70nut4_T-5" edge="1" source="_gRbTxQa4-UPoeBBQKuG-0">
          <mxGeometry relative="1" as="geometry">
            <mxPoint x="1528" y="690" as="sourcePoint" />
          </mxGeometry>
        </mxCell>
        <mxCell id="qFBfg2p7GqOk__bsmwk6-56" style="edgeStyle=orthogonalEdgeStyle;rounded=0;orthogonalLoop=1;jettySize=auto;html=1;startArrow=none;startFill=0;endArrow=classicThin;endFill=1;" parent="YZKkqxeADZLwmNbFVjpf-16" source="qFBfg2p7GqOk__bsmwk6-42" target="qFBfg2p7GqOk__bsmwk6-55" edge="1">
          <mxGeometry relative="1" as="geometry" />
        </mxCell>
        <mxCell id="YZKkqxeADZLwmNbFVjpf-19" value="Аналитик" style="swimlane;html=1;startSize=20;horizontal=0;" parent="YZKkqxeADZLwmNbFVjpf-16" vertex="1">
          <mxGeometry y="660" width="1830" height="280" as="geometry" />
        </mxCell>
        <mxCell id="qFBfg2p7GqOk__bsmwk6-17" style="edgeStyle=orthogonalEdgeStyle;rounded=0;orthogonalLoop=1;jettySize=auto;html=1;entryX=0;entryY=0.5;entryDx=0;entryDy=0;entryPerimeter=0;startArrow=none;startFill=0;endArrow=classicThin;endFill=1;" parent="YZKkqxeADZLwmNbFVjpf-19" target="qFBfg2p7GqOk__bsmwk6-15" edge="1">
          <mxGeometry relative="1" as="geometry">
            <mxPoint x="1410" y="70" as="sourcePoint" />
          </mxGeometry>
        </mxCell>
        <mxCell id="qFBfg2p7GqOk__bsmwk6-24" style="edgeStyle=orthogonalEdgeStyle;rounded=0;orthogonalLoop=1;jettySize=auto;html=1;dashed=1;startArrow=none;startFill=0;endArrow=classicThin;endFill=1;entryX=0.5;entryY=0;entryDx=0;entryDy=0;exitX=0.5;exitY=1;exitDx=0;exitDy=0;exitPerimeter=0;" parent="YZKkqxeADZLwmNbFVjpf-19" source="qFBfg2p7GqOk__bsmwk6-66" target="qFBfg2p7GqOk__bsmwk6-65" edge="1">
          <mxGeometry relative="1" as="geometry">
            <mxPoint x="1340" y="110" as="sourcePoint" />
            <mxPoint x="1360" y="190" as="targetPoint" />
            <Array as="points">
              <mxPoint x="1350" y="120" />
              <mxPoint x="1350" y="120" />
            </Array>
          </mxGeometry>
        </mxCell>
        <mxCell id="_gRbTxQa4-UPoeBBQKuG-1" style="edgeStyle=orthogonalEdgeStyle;rounded=0;orthogonalLoop=1;jettySize=auto;html=1;entryX=0.5;entryY=1;entryDx=0;entryDy=0;entryPerimeter=0;" edge="1" parent="YZKkqxeADZLwmNbFVjpf-19" source="qFBfg2p7GqOk__bsmwk6-15" target="_gRbTxQa4-UPoeBBQKuG-0">
          <mxGeometry relative="1" as="geometry" />
        </mxCell>
        <mxCell id="qFBfg2p7GqOk__bsmwk6-15" value="Закрывает задачу&#xa;в Jira" style="points=[[0.25,0,0],[0.5,0,0],[0.75,0,0],[1,0.25,0],[1,0.5,0],[1,0.75,0],[0.75,1,0],[0.5,1,0],[0.25,1,0],[0,0.75,0],[0,0.5,0],[0,0.25,0]];shape=mxgraph.bpmn.task;rectStyle=rounded;size=10;taskMarker=businessRule;fillColor=#FFFFFF;" parent="YZKkqxeADZLwmNbFVjpf-19" vertex="1">
          <mxGeometry x="1470" y="140" width="120" height="80" as="geometry" />
        </mxCell>
        <mxCell id="qFBfg2p7GqOk__bsmwk6-62" style="edgeStyle=orthogonalEdgeStyle;rounded=0;orthogonalLoop=1;jettySize=auto;html=1;entryX=0.5;entryY=0;entryDx=0;entryDy=0;entryPerimeter=0;startArrow=none;startFill=0;endArrow=classicThin;endFill=1;" parent="YZKkqxeADZLwmNbFVjpf-19" source="qFBfg2p7GqOk__bsmwk6-55" target="qFBfg2p7GqOk__bsmwk6-61" edge="1">
          <mxGeometry relative="1" as="geometry" />
        </mxCell>
        <mxCell id="qFBfg2p7GqOk__bsmwk6-55" value="Ознакамливается с&#xa;перечнем работ и &#xa;связанными&#xa;требованиями " style="shape=mxgraph.bpmn.task;rectStyle=rounded;size=10;taskMarker=abstract;" parent="YZKkqxeADZLwmNbFVjpf-19" vertex="1">
          <mxGeometry x="910" y="50" width="120" height="80" as="geometry" />
        </mxCell>
        <mxCell id="qFBfg2p7GqOk__bsmwk6-59" style="edgeStyle=orthogonalEdgeStyle;rounded=0;orthogonalLoop=1;jettySize=auto;html=1;entryX=0.017;entryY=0.5;entryDx=0;entryDy=0;entryPerimeter=0;startArrow=none;startFill=0;endArrow=classicThin;endFill=1;dashed=1;" parent="YZKkqxeADZLwmNbFVjpf-19" source="qFBfg2p7GqOk__bsmwk6-58" target="qFBfg2p7GqOk__bsmwk6-55" edge="1">
          <mxGeometry relative="1" as="geometry" />
        </mxCell>
        <mxCell id="qFBfg2p7GqOk__bsmwk6-58" value="Госконтракт" style="shape=mxgraph.bpmn.data;labelPosition=center;verticalLabelPosition=bottom;align=center;verticalAlign=top;size=15;bpmnTransferType=input;" parent="YZKkqxeADZLwmNbFVjpf-19" vertex="1">
          <mxGeometry x="820" y="60" width="40" height="60" as="geometry" />
        </mxCell>
        <mxCell id="qFBfg2p7GqOk__bsmwk6-61" value="Регистрирует&#xa;требования" style="points=[[0.25,0,0],[0.5,0,0],[0.75,0,0],[1,0.25,0],[1,0.5,0],[1,0.75,0],[0.75,1,0],[0.5,1,0],[0.25,1,0],[0,0.75,0],[0,0.5,0],[0,0.25,0]];shape=mxgraph.bpmn.task;rectStyle=rounded;size=10;taskMarker=abstract;isLoopSub=1;" parent="YZKkqxeADZLwmNbFVjpf-19" vertex="1">
          <mxGeometry x="910" y="160" width="120" height="80" as="geometry" />
        </mxCell>
        <mxCell id="qFBfg2p7GqOk__bsmwk6-65" value="Таблица требований" style="shape=datastore;whiteSpace=wrap;html=1;labelPosition=center;verticalLabelPosition=bottom;align=center;verticalAlign=top;" parent="YZKkqxeADZLwmNbFVjpf-19" vertex="1">
          <mxGeometry x="1300" y="140" width="100" height="70" as="geometry" />
        </mxCell>
        <mxCell id="qFBfg2p7GqOk__bsmwk6-66" value="Фиксирует изменения&#xa;в требованиях" style="points=[[0.25,0,0],[0.5,0,0],[0.75,0,0],[1,0.25,0],[1,0.5,0],[1,0.75,0],[0.75,1,0],[0.5,1,0],[0.25,1,0],[0,0.75,0],[0,0.5,0],[0,0.25,0]];shape=mxgraph.bpmn.task;rectStyle=rounded;size=10;taskMarker=businessRule;fillColor=#ffffff;" parent="YZKkqxeADZLwmNbFVjpf-19" vertex="1">
          <mxGeometry x="1290" y="30" width="120" height="80" as="geometry" />
        </mxCell>
        <mxCell id="qFBfg2p7GqOk__bsmwk6-73" style="edgeStyle=orthogonalEdgeStyle;rounded=0;orthogonalLoop=1;jettySize=auto;html=1;entryX=0;entryY=0.5;entryDx=0;entryDy=0;entryPerimeter=0;dashed=1;startArrow=none;startFill=0;endArrow=classicThin;endFill=1;" parent="YZKkqxeADZLwmNbFVjpf-19" source="qFBfg2p7GqOk__bsmwk6-72" target="qFBfg2p7GqOk__bsmwk6-66" edge="1">
          <mxGeometry relative="1" as="geometry" />
        </mxCell>
        <mxCell id="qFBfg2p7GqOk__bsmwk6-72" value="Список согласованных&#xa;требований" style="shape=mxgraph.bpmn.data;labelPosition=center;verticalLabelPosition=bottom;align=center;verticalAlign=top;size=15;bpmnTransferType=input;fillColor=#FFFFFF;" parent="YZKkqxeADZLwmNbFVjpf-19" vertex="1">
          <mxGeometry x="1210" y="40" width="40" height="60" as="geometry" />
        </mxCell>
        <mxCell id="_gRbTxQa4-UPoeBBQKuG-0" value="Делит требования&#xa;на функциональные&#xa;блоки" style="points=[[0.25,0,0],[0.5,0,0],[0.75,0,0],[1,0.25,0],[1,0.5,0],[1,0.75,0],[0.75,1,0],[0.5,1,0],[0.25,1,0],[0,0.75,0],[0,0.5,0],[0,0.25,0]];shape=mxgraph.bpmn.task;rectStyle=rounded;size=10;taskMarker=abstract;" vertex="1" parent="YZKkqxeADZLwmNbFVjpf-19">
          <mxGeometry x="1470" y="30" width="120" height="80" as="geometry" />
        </mxCell>
        <mxCell id="qFBfg2p7GqOk__bsmwk6-8" style="edgeStyle=orthogonalEdgeStyle;rounded=0;orthogonalLoop=1;jettySize=auto;html=1;entryX=0.5;entryY=0;entryDx=0;entryDy=0;startArrow=none;startFill=0;endArrow=classicThin;endFill=1;dashed=1;" parent="YZKkqxeADZLwmNbFVjpf-16" source="E49rKe3DuRojxuS_fLeT-26" target="qFBfg2p7GqOk__bsmwk6-7" edge="1">
          <mxGeometry relative="1" as="geometry" />
        </mxCell>
        <mxCell id="qFBfg2p7GqOk__bsmwk6-68" style="edgeStyle=orthogonalEdgeStyle;rounded=0;orthogonalLoop=1;jettySize=auto;html=1;entryX=0.5;entryY=1;entryDx=0;entryDy=0;startArrow=none;startFill=0;endArrow=classicThin;endFill=1;dashed=1;" parent="YZKkqxeADZLwmNbFVjpf-16" source="qFBfg2p7GqOk__bsmwk6-15" target="qFBfg2p7GqOk__bsmwk6-7" edge="1">
          <mxGeometry relative="1" as="geometry">
            <mxPoint x="1640" y="810" as="targetPoint" />
            <Array as="points">
              <mxPoint x="1530" y="920" />
              <mxPoint x="260" y="920" />
            </Array>
          </mxGeometry>
        </mxCell>
        <mxCell id="yryPob8eEOQ6dLK_dlvo-0" value="&lt;div style=&quot;font-size: 20px;&quot;&gt;&lt;b style=&quot;font-size: 20px;&quot;&gt;Порождаемые регламенты:&lt;/b&gt;&lt;/div&gt;&lt;div style=&quot;font-size: 20px;&quot;&gt;1. Инициация нового проекта&lt;/div&gt;&lt;div style=&quot;font-size: 20px;&quot;&gt;2. Распределение задач по проектам&lt;/div&gt;&lt;div style=&quot;font-size: 20px;&quot;&gt;3. Распределение работ по работе с требованиями&lt;/div&gt;&lt;div style=&quot;font-size: 20px;&quot;&gt;5. Порядок регистрации требований и фиксации изменений&lt;/div&gt;&lt;div style=&quot;font-size: 20px;&quot;&gt;6. Согласование требований с заказчиком&lt;/div&gt;" style="text;html=1;align=left;verticalAlign=middle;resizable=0;points=[];autosize=1;strokeColor=none;fontSize=20;" parent="3bUT5csseKGplUfXDabb-1" vertex="1">
          <mxGeometry x="80" y="1480" width="570" height="150" as="geometry" />
        </mxCell>
        <mxCell id="Wm09ouWId4Esr9MIbtX2-0" value="&lt;div style=&quot;font-size: 20px&quot;&gt;&lt;b style=&quot;font-size: 20px&quot;&gt;Порождаемые правила:&lt;/b&gt;&lt;/div&gt;&lt;div style=&quot;font-size: 20px&quot;&gt;1. Именование требований&lt;/div&gt;&lt;div style=&quot;font-size: 20px&quot;&gt;2. Правила регистрации требований и фиксирования изменений&lt;/div&gt;&lt;div style=&quot;font-size: 20px&quot;&gt;3. Правила создания задач в Jira&lt;/div&gt;" style="text;html=1;align=left;verticalAlign=middle;resizable=0;points=[];autosize=1;strokeColor=none;fontSize=20;" parent="3bUT5csseKGplUfXDabb-1" vertex="1">
          <mxGeometry x="730" y="1470" width="620" height="100" as="geometry" />
        </mxCell>
        <mxCell id="E49rKe3DuRojxuS_fLeT-9" value="Создание&amp;nbsp;нового проекта" style="swimlane;html=1;startSize=20;fontStyle=0;collapsible=0;horizontal=0;swimlaneLine=1;swimlaneFillColor=#ffffff;strokeWidth=2;" parent="3bUT5csseKGplUfXDabb-1" vertex="1">
          <mxGeometry x="120" y="-450" width="930" height="250" as="geometry" />
        </mxCell>
        <mxCell id="E49rKe3DuRojxuS_fLeT-10" value="Требования ГК&lt;br&gt;не подходят под&lt;br&gt;текущие проекты" style="points=[[0.145,0.145,0],[0.5,0,0],[0.855,0.145,0],[1,0.5,0],[0.855,0.855,0],[0.5,1,0],[0.145,0.855,0],[0,0.5,0]];shape=mxgraph.bpmn.event;html=1;verticalLabelPosition=bottom;labelBackgroundColor=#ffffff;verticalAlign=top;align=center;perimeter=ellipsePerimeter;outlineConnect=0;aspect=fixed;outline=standard;symbol=conditional;" parent="E49rKe3DuRojxuS_fLeT-9" vertex="1">
          <mxGeometry x="80" y="55" width="50" height="50" as="geometry" />
        </mxCell>
        <mxCell id="E49rKe3DuRojxuS_fLeT-17" value="" style="points=[[0.145,0.145,0],[0.5,0,0],[0.855,0.145,0],[1,0.5,0],[0.855,0.855,0],[0.5,1,0],[0.145,0.855,0],[0,0.5,0]];shape=mxgraph.bpmn.event;html=1;verticalLabelPosition=bottom;labelBackgroundColor=#ffffff;verticalAlign=top;align=center;perimeter=ellipsePerimeter;outlineConnect=0;aspect=fixed;outline=end;symbol=terminate2;" parent="E49rKe3DuRojxuS_fLeT-9" vertex="1">
          <mxGeometry x="800" y="55" width="50" height="50" as="geometry" />
        </mxCell>
        <mxCell id="E49rKe3DuRojxuS_fLeT-22" value="Таблица работ по проектам" style="shape=datastore;whiteSpace=wrap;html=1;labelPosition=center;verticalLabelPosition=bottom;align=center;verticalAlign=top;" parent="E49rKe3DuRojxuS_fLeT-9" vertex="1">
          <mxGeometry x="779" y="130" width="91" height="70" as="geometry" />
        </mxCell>
        <mxCell id="E49rKe3DuRojxuS_fLeT-16" value="" style="edgeStyle=orthogonalEdgeStyle;rounded=0;orthogonalLoop=1;jettySize=auto;html=1;startArrow=none;startFill=0;endArrow=classicThin;endFill=1;" parent="3bUT5csseKGplUfXDabb-1" source="E49rKe3DuRojxuS_fLeT-13" target="E49rKe3DuRojxuS_fLeT-15" edge="1">
          <mxGeometry relative="1" as="geometry" />
        </mxCell>
        <mxCell id="E49rKe3DuRojxuS_fLeT-13" value="Определяет&#xa;имя проекта" style="points=[[0.25,0,0],[0.5,0,0],[0.75,0,0],[1,0.25,0],[1,0.5,0],[1,0.75,0],[0.75,1,0],[0.5,1,0],[0.25,1,0],[0,0.75,0],[0,0.5,0],[0,0.25,0]];shape=mxgraph.bpmn.task;rectStyle=rounded;size=10;taskMarker=abstract;" parent="3bUT5csseKGplUfXDabb-1" vertex="1">
          <mxGeometry x="329" y="-410" width="120" height="80" as="geometry" />
        </mxCell>
        <mxCell id="E49rKe3DuRojxuS_fLeT-14" value="" style="edgeStyle=orthogonalEdgeStyle;rounded=0;orthogonalLoop=1;jettySize=auto;html=1;startArrow=none;startFill=0;endArrow=classicThin;endFill=1;exitX=1;exitY=0.5;exitDx=0;exitDy=0;exitPerimeter=0;" parent="3bUT5csseKGplUfXDabb-1" source="E49rKe3DuRojxuS_fLeT-10" target="E49rKe3DuRojxuS_fLeT-13" edge="1">
          <mxGeometry relative="1" as="geometry">
            <mxPoint x="280" y="-370" as="sourcePoint" />
          </mxGeometry>
        </mxCell>
        <mxCell id="E49rKe3DuRojxuS_fLeT-20" value="" style="edgeStyle=orthogonalEdgeStyle;rounded=0;orthogonalLoop=1;jettySize=auto;html=1;startArrow=none;startFill=0;endArrow=classicThin;endFill=1;" parent="3bUT5csseKGplUfXDabb-1" source="E49rKe3DuRojxuS_fLeT-15" target="E49rKe3DuRojxuS_fLeT-19" edge="1">
          <mxGeometry relative="1" as="geometry" />
        </mxCell>
        <mxCell id="E49rKe3DuRojxuS_fLeT-15" value="Присваивает &#xa;4-х символьный код" style="points=[[0.25,0,0],[0.5,0,0],[0.75,0,0],[1,0.25,0],[1,0.5,0],[1,0.75,0],[0.75,1,0],[0.5,1,0],[0.25,1,0],[0,0.75,0],[0,0.5,0],[0,0.25,0]];shape=mxgraph.bpmn.task;rectStyle=rounded;size=10;taskMarker=abstract;" parent="3bUT5csseKGplUfXDabb-1" vertex="1">
          <mxGeometry x="529" y="-410" width="120" height="80" as="geometry" />
        </mxCell>
        <mxCell id="E49rKe3DuRojxuS_fLeT-21" style="edgeStyle=orthogonalEdgeStyle;rounded=0;orthogonalLoop=1;jettySize=auto;html=1;startArrow=none;startFill=0;endArrow=classicThin;endFill=1;" parent="3bUT5csseKGplUfXDabb-1" source="E49rKe3DuRojxuS_fLeT-19" target="E49rKe3DuRojxuS_fLeT-17" edge="1">
          <mxGeometry relative="1" as="geometry" />
        </mxCell>
        <mxCell id="E49rKe3DuRojxuS_fLeT-23" style="edgeStyle=orthogonalEdgeStyle;rounded=0;orthogonalLoop=1;jettySize=auto;html=1;entryX=0;entryY=0.5;entryDx=0;entryDy=0;startArrow=none;startFill=0;endArrow=classicThin;endFill=1;dashed=1;" parent="3bUT5csseKGplUfXDabb-1" source="E49rKe3DuRojxuS_fLeT-19" target="E49rKe3DuRojxuS_fLeT-22" edge="1">
          <mxGeometry relative="1" as="geometry">
            <Array as="points">
              <mxPoint x="789" y="-285" />
            </Array>
          </mxGeometry>
        </mxCell>
        <mxCell id="E49rKe3DuRojxuS_fLeT-19" value="Фиксирует&#xa;информацию &#xa;о проекте &#xa;в confluence" style="points=[[0.25,0,0],[0.5,0,0],[0.75,0,0],[1,0.25,0],[1,0.5,0],[1,0.75,0],[0.75,1,0],[0.5,1,0],[0.25,1,0],[0,0.75,0],[0,0.5,0],[0,0.25,0]];shape=mxgraph.bpmn.task;rectStyle=rounded;size=10;taskMarker=abstract;" parent="3bUT5csseKGplUfXDabb-1" vertex="1">
          <mxGeometry x="729" y="-410" width="120" height="80" as="geometry" />
        </mxCell>
        <mxCell id="E49rKe3DuRojxuS_fLeT-27" value="" style="swimlane;html=1;startSize=260;fontStyle=0;collapsible=0;horizontal=0;swimlaneLine=0;fillColor=#FFFFFF;" parent="3bUT5csseKGplUfXDabb-1" vertex="1">
          <mxGeometry x="160" y="-80" width="270" height="60" as="geometry" />
        </mxCell>
        <mxCell id="E49rKe3DuRojxuS_fLeT-29" value="Правила создания задач в Jira" style="text;html=1;align=center;verticalAlign=middle;resizable=0;points=[];autosize=1;strokeColor=none;" parent="3bUT5csseKGplUfXDabb-1" vertex="1">
          <mxGeometry x="200" y="-60" width="190" height="20" as="geometry" />
        </mxCell>
        <mxCell id="E49rKe3DuRojxuS_fLeT-31" value="" style="dashed=1;dashPattern=8 4;endArrow=blockThin;endFill=1;startArrow=oval;startFill=0;endSize=6;startSize=4;exitX=0.25;exitY=0;exitDx=0;exitDy=0;exitPerimeter=0;" parent="3bUT5csseKGplUfXDabb-1" source="E49rKe3DuRojxuS_fLeT-26" edge="1">
          <mxGeometry width="160" relative="1" as="geometry">
            <mxPoint x="550" y="60" as="sourcePoint" />
            <mxPoint x="260" y="-20" as="targetPoint" />
          </mxGeometry>
        </mxCell>
        <mxCell id="E49rKe3DuRojxuS_fLeT-32" value="" style="dashed=1;dashPattern=8 4;endArrow=blockThin;endFill=1;startArrow=oval;startFill=0;endSize=6;startSize=4;entryX=0.75;entryY=0;entryDx=0;entryDy=0;entryPerimeter=0;" parent="3bUT5csseKGplUfXDabb-1" target="E49rKe3DuRojxuS_fLeT-26" edge="1">
          <mxGeometry width="160" relative="1" as="geometry">
            <mxPoint x="320" y="-20" as="sourcePoint" />
            <mxPoint x="710" y="60" as="targetPoint" />
          </mxGeometry>
        </mxCell>
        <mxCell id="E49rKe3DuRojxuS_fLeT-34" value="Распределение работ ГК по проектам" style="swimlane;html=1;startSize=20;fontStyle=0;collapsible=0;horizontal=0;swimlaneLine=1;swimlaneFillColor=#ffffff;strokeWidth=2;" parent="3bUT5csseKGplUfXDabb-1" vertex="1">
          <mxGeometry x="120" y="-750" width="1240" height="250" as="geometry" />
        </mxCell>
        <mxCell id="E49rKe3DuRojxuS_fLeT-53" style="edgeStyle=orthogonalEdgeStyle;rounded=0;orthogonalLoop=1;jettySize=auto;html=1;startArrow=none;startFill=0;endArrow=classicThin;endFill=1;" parent="E49rKe3DuRojxuS_fLeT-34" source="E49rKe3DuRojxuS_fLeT-56" target="E49rKe3DuRojxuS_fLeT-52" edge="1">
          <mxGeometry relative="1" as="geometry" />
        </mxCell>
        <mxCell id="E49rKe3DuRojxuS_fLeT-51" value="" style="points=[[0.145,0.145,0],[0.5,0,0],[0.855,0.145,0],[1,0.5,0],[0.855,0.855,0],[0.5,1,0],[0.145,0.855,0],[0,0.5,0]];shape=mxgraph.bpmn.event;html=1;verticalLabelPosition=bottom;labelBackgroundColor=#ffffff;verticalAlign=top;align=center;perimeter=ellipsePerimeter;outlineConnect=0;aspect=fixed;outline=standard;symbol=general;" parent="E49rKe3DuRojxuS_fLeT-34" vertex="1">
          <mxGeometry x="50" y="55" width="50" height="50" as="geometry" />
        </mxCell>
        <mxCell id="E49rKe3DuRojxuS_fLeT-52" value="Назначает РП" style="points=[[0.25,0,0],[0.5,0,0],[0.75,0,0],[1,0.25,0],[1,0.5,0],[1,0.75,0],[0.75,1,0],[0.5,1,0],[0.25,1,0],[0,0.75,0],[0,0.5,0],[0,0.25,0]];shape=mxgraph.bpmn.task;rectStyle=rounded;size=10;taskMarker=abstract;" parent="E49rKe3DuRojxuS_fLeT-34" vertex="1">
          <mxGeometry x="330" y="40" width="120" height="80" as="geometry" />
        </mxCell>
        <mxCell id="E49rKe3DuRojxuS_fLeT-56" value="Группирует работы&#xa;по общему признаку" style="points=[[0.25,0,0],[0.5,0,0],[0.75,0,0],[1,0.25,0],[1,0.5,0],[1,0.75,0],[0.75,1,0],[0.5,1,0],[0.25,1,0],[0,0.75,0],[0,0.5,0],[0,0.25,0]];shape=mxgraph.bpmn.task;rectStyle=rounded;size=10;taskMarker=abstract;" parent="E49rKe3DuRojxuS_fLeT-34" vertex="1">
          <mxGeometry x="150" y="40" width="120" height="80" as="geometry" />
        </mxCell>
        <mxCell id="E49rKe3DuRojxuS_fLeT-57" value="" style="edgeStyle=orthogonalEdgeStyle;rounded=0;orthogonalLoop=1;jettySize=auto;html=1;startArrow=none;startFill=0;endArrow=classicThin;endFill=1;" parent="E49rKe3DuRojxuS_fLeT-34" source="E49rKe3DuRojxuS_fLeT-51" target="E49rKe3DuRojxuS_fLeT-56" edge="1">
          <mxGeometry relative="1" as="geometry">
            <mxPoint x="220" y="-670" as="sourcePoint" />
            <mxPoint x="440" y="-670" as="targetPoint" />
          </mxGeometry>
        </mxCell>
        <mxCell id="E49rKe3DuRojxuS_fLeT-58" value="" style="points=[[0.145,0.145,0],[0.5,0,0],[0.855,0.145,0],[1,0.5,0],[0.855,0.855,0],[0.5,1,0],[0.145,0.855,0],[0,0.5,0]];shape=mxgraph.bpmn.event;html=1;verticalLabelPosition=bottom;labelBackgroundColor=#ffffff;verticalAlign=top;align=center;perimeter=ellipsePerimeter;outlineConnect=0;aspect=fixed;outline=end;symbol=terminate2;" parent="E49rKe3DuRojxuS_fLeT-34" vertex="1">
          <mxGeometry x="1071" y="55" width="50" height="50" as="geometry" />
        </mxCell>
        <mxCell id="E49rKe3DuRojxuS_fLeT-62" style="edgeStyle=orthogonalEdgeStyle;rounded=0;orthogonalLoop=1;jettySize=auto;html=1;startArrow=none;startFill=0;endArrow=classicThin;endFill=1;entryX=0;entryY=0.5;entryDx=0;entryDy=0;entryPerimeter=0;" parent="E49rKe3DuRojxuS_fLeT-34" source="E49rKe3DuRojxuS_fLeT-61" target="E9s1mU3Nz1q0eeicc9FV-0" edge="1">
          <mxGeometry relative="1" as="geometry" />
        </mxCell>
        <mxCell id="E49rKe3DuRojxuS_fLeT-61" value="Фиксирует&#xa;информацию &#xa;о проекте &#xa;в confluence" style="points=[[0.25,0,0],[0.5,0,0],[0.75,0,0],[1,0.25,0],[1,0.5,0],[1,0.75,0],[0.75,1,0],[0.5,1,0],[0.25,1,0],[0,0.75,0],[0,0.5,0],[0,0.25,0]];shape=mxgraph.bpmn.task;rectStyle=rounded;size=10;taskMarker=abstract;" parent="E49rKe3DuRojxuS_fLeT-34" vertex="1">
          <mxGeometry x="700" y="40" width="120" height="80" as="geometry" />
        </mxCell>
        <mxCell id="E49rKe3DuRojxuS_fLeT-63" value="Таблица работ по проектам" style="shape=datastore;whiteSpace=wrap;html=1;labelPosition=center;verticalLabelPosition=bottom;align=center;verticalAlign=top;" parent="E49rKe3DuRojxuS_fLeT-34" vertex="1">
          <mxGeometry x="820" y="131" width="91" height="70" as="geometry" />
        </mxCell>
        <mxCell id="E49rKe3DuRojxuS_fLeT-64" style="edgeStyle=orthogonalEdgeStyle;rounded=0;orthogonalLoop=1;jettySize=auto;html=1;entryX=0;entryY=0.7;entryDx=0;entryDy=0;startArrow=none;startFill=0;endArrow=classicThin;endFill=1;dashed=1;exitX=0.575;exitY=1.013;exitDx=0;exitDy=0;exitPerimeter=0;" parent="E49rKe3DuRojxuS_fLeT-34" source="E49rKe3DuRojxuS_fLeT-61" target="E49rKe3DuRojxuS_fLeT-63" edge="1">
          <mxGeometry relative="1" as="geometry">
            <mxPoint x="770" y="143" as="sourcePoint" />
            <mxPoint x="900" y="188" as="targetPoint" />
            <Array as="points">
              <mxPoint x="770" y="121" />
              <mxPoint x="770" y="180" />
            </Array>
          </mxGeometry>
        </mxCell>
        <mxCell id="E9s1mU3Nz1q0eeicc9FV-1" style="edgeStyle=orthogonalEdgeStyle;rounded=0;orthogonalLoop=1;jettySize=auto;html=1;entryX=0;entryY=0.5;entryDx=0;entryDy=0;entryPerimeter=0;startArrow=none;startFill=0;endArrow=classicThin;endFill=1;" parent="E49rKe3DuRojxuS_fLeT-34" source="E9s1mU3Nz1q0eeicc9FV-0" target="E49rKe3DuRojxuS_fLeT-58" edge="1">
          <mxGeometry relative="1" as="geometry" />
        </mxCell>
        <mxCell id="E9s1mU3Nz1q0eeicc9FV-0" value="Создаёт задачу&#xa;на РП в Jira" style="points=[[0.25,0,0],[0.5,0,0],[0.75,0,0],[1,0.25,0],[1,0.5,0],[1,0.75,0],[0.75,1,0],[0.5,1,0],[0.25,1,0],[0,0.75,0],[0,0.5,0],[0,0.25,0]];shape=mxgraph.bpmn.task;rectStyle=rounded;size=10;taskMarker=abstract;fillColor=#FFFFFF;" parent="E49rKe3DuRojxuS_fLeT-34" vertex="1">
          <mxGeometry x="900" y="40" width="120" height="80" as="geometry" />
        </mxCell>
        <mxCell id="E9s1mU3Nz1q0eeicc9FV-2" value="Список задач в Jira" style="shape=datastore;whiteSpace=wrap;html=1;labelPosition=center;verticalLabelPosition=bottom;align=center;verticalAlign=top;" parent="E49rKe3DuRojxuS_fLeT-34" vertex="1">
          <mxGeometry x="1000" y="131" width="91" height="70" as="geometry" />
        </mxCell>
        <mxCell id="E49rKe3DuRojxuS_fLeT-59" style="edgeStyle=orthogonalEdgeStyle;rounded=0;orthogonalLoop=1;jettySize=auto;html=1;startArrow=none;startFill=0;endArrow=classicThin;endFill=1;entryX=0;entryY=0.5;entryDx=0;entryDy=0;entryPerimeter=0;" parent="3bUT5csseKGplUfXDabb-1" source="E49rKe3DuRojxuS_fLeT-54" target="E49rKe3DuRojxuS_fLeT-61" edge="1">
          <mxGeometry relative="1" as="geometry">
            <mxPoint x="800" y="-670" as="targetPoint" />
          </mxGeometry>
        </mxCell>
        <mxCell id="E49rKe3DuRojxuS_fLeT-54" value="Определяет &#xa;состав аналитиков" style="points=[[0.25,0,0],[0.5,0,0],[0.75,0,0],[1,0.25,0],[1,0.5,0],[1,0.75,0],[0.75,1,0],[0.5,1,0],[0.25,1,0],[0,0.75,0],[0,0.5,0],[0,0.25,0]];shape=mxgraph.bpmn.task;rectStyle=rounded;size=10;taskMarker=abstract;" parent="3bUT5csseKGplUfXDabb-1" vertex="1">
          <mxGeometry x="640" y="-710" width="120" height="80" as="geometry" />
        </mxCell>
        <mxCell id="E49rKe3DuRojxuS_fLeT-55" value="" style="edgeStyle=orthogonalEdgeStyle;rounded=0;orthogonalLoop=1;jettySize=auto;html=1;startArrow=none;startFill=0;endArrow=classicThin;endFill=1;" parent="3bUT5csseKGplUfXDabb-1" source="E49rKe3DuRojxuS_fLeT-52" target="E49rKe3DuRojxuS_fLeT-54" edge="1">
          <mxGeometry relative="1" as="geometry" />
        </mxCell>
        <mxCell id="E9s1mU3Nz1q0eeicc9FV-3" style="edgeStyle=orthogonalEdgeStyle;rounded=0;orthogonalLoop=1;jettySize=auto;html=1;entryX=0;entryY=0.7;entryDx=0;entryDy=0;startArrow=none;startFill=0;endArrow=classicThin;endFill=1;dashed=1;exitX=0.575;exitY=1.013;exitDx=0;exitDy=0;exitPerimeter=0;" parent="3bUT5csseKGplUfXDabb-1" edge="1">
          <mxGeometry relative="1" as="geometry">
            <mxPoint x="1069" y="-628.96" as="sourcePoint" />
            <mxPoint x="1120" y="-570" as="targetPoint" />
            <Array as="points">
              <mxPoint x="1070" y="-629" />
              <mxPoint x="1070" y="-570" />
            </Array>
          </mxGeometry>
        </mxCell>
        <mxCell id="qFBfg2p7GqOk__bsmwk6-26" value="Регистрация требований" style="swimlane;html=1;startSize=20;fontStyle=0;collapsible=0;horizontal=0;swimlaneLine=1;swimlaneFillColor=#ffffff;strokeWidth=2;fillColor=#FFFFFF;" parent="3bUT5csseKGplUfXDabb-1" vertex="1">
          <mxGeometry x="30" y="1020" width="1060" height="260" as="geometry" />
        </mxCell>
        <mxCell id="qFBfg2p7GqOk__bsmwk6-27" style="edgeStyle=orthogonalEdgeStyle;rounded=0;orthogonalLoop=1;jettySize=auto;html=1;exitX=1;exitY=0.5;exitDx=0;exitDy=0;exitPerimeter=0;" parent="qFBfg2p7GqOk__bsmwk6-26" source="qFBfg2p7GqOk__bsmwk6-60" edge="1">
          <mxGeometry relative="1" as="geometry">
            <mxPoint x="101" y="180.49999999999955" as="sourcePoint" />
            <mxPoint x="160.99999999999977" y="180.5" as="targetPoint" />
          </mxGeometry>
        </mxCell>
        <mxCell id="qFBfg2p7GqOk__bsmwk6-31" value="Таблица требований" style="shape=datastore;whiteSpace=wrap;html=1;labelPosition=center;verticalLabelPosition=bottom;align=center;verticalAlign=top;" parent="qFBfg2p7GqOk__bsmwk6-26" vertex="1">
          <mxGeometry x="371" y="11.5" width="100" height="70" as="geometry" />
        </mxCell>
        <mxCell id="qFBfg2p7GqOk__bsmwk6-29" style="edgeStyle=orthogonalEdgeStyle;rounded=0;orthogonalLoop=1;jettySize=auto;html=1;entryX=0;entryY=0.5;entryDx=0;entryDy=0;dashed=1;startArrow=none;startFill=0;endArrow=classicThin;endFill=1;" parent="qFBfg2p7GqOk__bsmwk6-26" target="qFBfg2p7GqOk__bsmwk6-31" edge="1">
          <mxGeometry relative="1" as="geometry">
            <Array as="points">
              <mxPoint x="221" y="47" />
            </Array>
            <mxPoint x="221.00000000000023" y="140.5" as="sourcePoint" />
          </mxGeometry>
        </mxCell>
        <mxCell id="qFBfg2p7GqOk__bsmwk6-64" style="edgeStyle=orthogonalEdgeStyle;rounded=0;orthogonalLoop=1;jettySize=auto;html=1;entryX=0;entryY=0.5;entryDx=0;entryDy=0;entryPerimeter=0;startArrow=none;startFill=0;endArrow=classicThin;endFill=1;" parent="qFBfg2p7GqOk__bsmwk6-26" source="qFBfg2p7GqOk__bsmwk6-32" target="qFBfg2p7GqOk__bsmwk6-63" edge="1">
          <mxGeometry relative="1" as="geometry" />
        </mxCell>
        <mxCell id="qFBfg2p7GqOk__bsmwk6-32" value="Для задачи ставит &#xa;статус &quot;Требуется&#xa;информация&quot;" style="points=[[0.25,0,0],[0.5,0,0],[0.75,0,0],[1,0.25,0],[1,0.5,0],[1,0.75,0],[0.75,1,0],[0.5,1,0],[0.25,1,0],[0,0.75,0],[0,0.5,0],[0,0.25,0]];shape=mxgraph.bpmn.task;rectStyle=rounded;size=10;taskMarker=businessRule;fillColor=#FFFFFF;" parent="qFBfg2p7GqOk__bsmwk6-26" vertex="1">
          <mxGeometry x="741" y="140.5" width="120" height="80" as="geometry" />
        </mxCell>
        <mxCell id="qFBfg2p7GqOk__bsmwk6-34" style="edgeStyle=orthogonalEdgeStyle;rounded=0;orthogonalLoop=1;jettySize=auto;html=1;entryX=0.5;entryY=1;entryDx=0;entryDy=0;dashed=1;startArrow=none;startFill=0;endArrow=classicThin;endFill=1;" parent="qFBfg2p7GqOk__bsmwk6-26" target="qFBfg2p7GqOk__bsmwk6-31" edge="1">
          <mxGeometry relative="1" as="geometry">
            <mxPoint x="420.9999999999998" y="140.5" as="sourcePoint" />
          </mxGeometry>
        </mxCell>
        <mxCell id="qFBfg2p7GqOk__bsmwk6-36" value="" style="edgeStyle=orthogonalEdgeStyle;rounded=0;orthogonalLoop=1;jettySize=auto;html=1;" parent="qFBfg2p7GqOk__bsmwk6-26" edge="1">
          <mxGeometry relative="1" as="geometry">
            <mxPoint x="280.9999999999998" y="180.5" as="sourcePoint" />
            <mxPoint x="360.9999999999998" y="180.5" as="targetPoint" />
          </mxGeometry>
        </mxCell>
        <mxCell id="qFBfg2p7GqOk__bsmwk6-37" style="edgeStyle=orthogonalEdgeStyle;rounded=0;orthogonalLoop=1;jettySize=auto;html=1;" parent="qFBfg2p7GqOk__bsmwk6-26" edge="1">
          <mxGeometry relative="1" as="geometry">
            <mxPoint x="741" y="180.5" as="targetPoint" />
            <mxPoint x="680.9999999999998" y="180.5" as="sourcePoint" />
          </mxGeometry>
        </mxCell>
        <mxCell id="qFBfg2p7GqOk__bsmwk6-38" style="edgeStyle=orthogonalEdgeStyle;rounded=0;orthogonalLoop=1;jettySize=auto;html=1;entryX=1;entryY=0.5;entryDx=0;entryDy=0;dashed=1;startArrow=none;startFill=0;endArrow=classicThin;endFill=1;" parent="qFBfg2p7GqOk__bsmwk6-26" target="qFBfg2p7GqOk__bsmwk6-31" edge="1">
          <mxGeometry relative="1" as="geometry">
            <Array as="points">
              <mxPoint x="621" y="47" />
            </Array>
            <mxPoint x="621.0000000000002" y="140.5" as="sourcePoint" />
          </mxGeometry>
        </mxCell>
        <mxCell id="qFBfg2p7GqOk__bsmwk6-33" value="" style="edgeStyle=orthogonalEdgeStyle;rounded=0;orthogonalLoop=1;jettySize=auto;html=1;" parent="qFBfg2p7GqOk__bsmwk6-26" edge="1">
          <mxGeometry relative="1" as="geometry">
            <mxPoint x="480.9999999999998" y="180.5" as="sourcePoint" />
            <mxPoint x="560.9999999999998" y="180.5" as="targetPoint" />
          </mxGeometry>
        </mxCell>
        <mxCell id="qFBfg2p7GqOk__bsmwk6-46" value="Регистрирует&#xa;требования из ГК в&#xa;Confluence" style="points=[[0.25,0,0],[0.5,0,0],[0.75,0,0],[1,0.25,0],[1,0.5,0],[1,0.75,0],[0.75,1,0],[0.5,1,0],[0.25,1,0],[0,0.75,0],[0,0.5,0],[0,0.25,0]];shape=mxgraph.bpmn.task;rectStyle=rounded;size=10;taskMarker=businessRule;fillColor=#FFFFFF;" parent="qFBfg2p7GqOk__bsmwk6-26" vertex="1">
          <mxGeometry x="160" y="141" width="120" height="80" as="geometry" />
        </mxCell>
        <mxCell id="qFBfg2p7GqOk__bsmwk6-48" value="Формирует&#xa;требования&#xa;второго уровня и&#xa;бизнес-правила" style="points=[[0.25,0,0],[0.5,0,0],[0.75,0,0],[1,0.25,0],[1,0.5,0],[1,0.75,0],[0.75,1,0],[0.5,1,0],[0.25,1,0],[0,0.75,0],[0,0.5,0],[0,0.25,0]];shape=mxgraph.bpmn.task;rectStyle=rounded;size=10;taskMarker=businessRule;fillColor=#FFFFFF;" parent="qFBfg2p7GqOk__bsmwk6-26" vertex="1">
          <mxGeometry x="361" y="140.5" width="120" height="80" as="geometry" />
        </mxCell>
        <mxCell id="qFBfg2p7GqOk__bsmwk6-49" value="Отмечает&#xa;требования&#xa;требующие&#xa;согласования" style="points=[[0.25,0,0],[0.5,0,0],[0.75,0,0],[1,0.25,0],[1,0.5,0],[1,0.75,0],[0.75,1,0],[0.5,1,0],[0.25,1,0],[0,0.75,0],[0,0.5,0],[0,0.25,0]];shape=mxgraph.bpmn.task;rectStyle=rounded;size=10;taskMarker=businessRule;fillColor=#FFFFFF;" parent="qFBfg2p7GqOk__bsmwk6-26" vertex="1">
          <mxGeometry x="560" y="141" width="120" height="80" as="geometry" />
        </mxCell>
        <mxCell id="qFBfg2p7GqOk__bsmwk6-51" value="" style="rounded=1;whiteSpace=wrap;html=1;fillColor=none;dashed=1;" parent="qFBfg2p7GqOk__bsmwk6-26" vertex="1">
          <mxGeometry x="140" y="128" width="560" height="110" as="geometry" />
        </mxCell>
        <mxCell id="qFBfg2p7GqOk__bsmwk6-60" value="" style="points=[[0.145,0.145,0],[0.5,0,0],[0.855,0.145,0],[1,0.5,0],[0.855,0.855,0],[0.5,1,0],[0.145,0.855,0],[0,0.5,0]];shape=mxgraph.bpmn.event;html=1;verticalLabelPosition=bottom;labelBackgroundColor=#ffffff;verticalAlign=top;align=center;perimeter=ellipsePerimeter;outlineConnect=0;aspect=fixed;outline=standard;symbol=general;fillColor=none;" parent="qFBfg2p7GqOk__bsmwk6-26" vertex="1">
          <mxGeometry x="40" y="156" width="50" height="50" as="geometry" />
        </mxCell>
        <mxCell id="qFBfg2p7GqOk__bsmwk6-63" value="" style="points=[[0.145,0.145,0],[0.5,0,0],[0.855,0.145,0],[1,0.5,0],[0.855,0.855,0],[0.5,1,0],[0.145,0.855,0],[0,0.5,0]];shape=mxgraph.bpmn.event;html=1;verticalLabelPosition=bottom;labelBackgroundColor=#ffffff;verticalAlign=top;align=center;perimeter=ellipsePerimeter;outlineConnect=0;aspect=fixed;outline=end;symbol=terminate2;fillColor=#ffffff;" parent="qFBfg2p7GqOk__bsmwk6-26" vertex="1">
          <mxGeometry x="930" y="155.5" width="50" height="50" as="geometry" />
        </mxCell>
        <mxCell id="qFBfg2p7GqOk__bsmwk6-44" value="Правила регистрации требований и фиксации изменений" style="rounded=0;whiteSpace=wrap;html=1;fillColor=#FFFFFF;" parent="3bUT5csseKGplUfXDabb-1" vertex="1">
          <mxGeometry x="170" y="1320" width="560" height="60" as="geometry" />
        </mxCell>
        <mxCell id="qFBfg2p7GqOk__bsmwk6-52" value="" style="dashed=1;dashPattern=8 4;endArrow=blockThin;endFill=1;startArrow=oval;startFill=0;endSize=6;startSize=4;exitX=0.25;exitY=1;exitDx=0;exitDy=0;entryX=0.25;entryY=0;entryDx=0;entryDy=0;" parent="3bUT5csseKGplUfXDabb-1" source="qFBfg2p7GqOk__bsmwk6-51" target="qFBfg2p7GqOk__bsmwk6-44" edge="1">
          <mxGeometry width="160" relative="1" as="geometry">
            <mxPoint x="390" y="1240" as="sourcePoint" />
            <mxPoint x="550" y="1240" as="targetPoint" />
          </mxGeometry>
        </mxCell>
        <mxCell id="qFBfg2p7GqOk__bsmwk6-53" value="" style="dashed=1;dashPattern=8 4;endArrow=blockThin;endFill=1;startArrow=oval;startFill=0;endSize=6;startSize=4;exitX=0.75;exitY=0;exitDx=0;exitDy=0;entryX=0.75;entryY=1;entryDx=0;entryDy=0;" parent="3bUT5csseKGplUfXDabb-1" source="qFBfg2p7GqOk__bsmwk6-44" target="qFBfg2p7GqOk__bsmwk6-51" edge="1">
          <mxGeometry width="160" relative="1" as="geometry">
            <mxPoint x="390" y="1240" as="sourcePoint" />
            <mxPoint x="550" y="1240" as="targetPoint" />
          </mxGeometry>
        </mxCell>
      </root>
    </mxGraphModel>
  </diagram>
  <diagram id="_rewt7G3UPsEPzmKw__s" name="Планирование">
    <mxGraphModel dx="1974" dy="1106" grid="1" gridSize="10" guides="1" tooltips="1" connect="1" arrows="1" fold="1" page="1" pageScale="1" pageWidth="827" pageHeight="1169" math="0" shadow="0">
      <root>
        <mxCell id="KUUUsiKI-zZ457EmI8FQ-0" />
        <mxCell id="KUUUsiKI-zZ457EmI8FQ-1" parent="KUUUsiKI-zZ457EmI8FQ-0" />
        <mxCell id="aOeAr14Fo2HWEys6hwEa-0" value="Планирование" style="swimlane;html=1;childLayout=stackLayout;resizeParent=1;resizeParentMax=0;horizontal=1;startSize=20;horizontalStack=0;fontSize=20;" parent="KUUUsiKI-zZ457EmI8FQ-1" vertex="1">
          <mxGeometry x="20" y="20" width="1900" height="610" as="geometry" />
        </mxCell>
        <mxCell id="aOeAr14Fo2HWEys6hwEa-1" value="Бизнес-аналитик" style="swimlane;html=1;startSize=20;horizontal=0;" parent="aOeAr14Fo2HWEys6hwEa-0" vertex="1">
          <mxGeometry y="20" width="1900" height="290" as="geometry" />
        </mxCell>
        <mxCell id="evzxW0BN-KAj_7rHe7aB-1" style="edgeStyle=orthogonalEdgeStyle;rounded=0;orthogonalLoop=1;jettySize=auto;html=1;" parent="aOeAr14Fo2HWEys6hwEa-1" target="evzxW0BN-KAj_7rHe7aB-0" edge="1">
          <mxGeometry relative="1" as="geometry">
            <mxPoint x="420" y="105" as="sourcePoint" />
          </mxGeometry>
        </mxCell>
        <mxCell id="evzxW0BN-KAj_7rHe7aB-7" style="edgeStyle=orthogonalEdgeStyle;rounded=0;orthogonalLoop=1;jettySize=auto;html=1;" parent="aOeAr14Fo2HWEys6hwEa-1" source="evzxW0BN-KAj_7rHe7aB-0" target="evzxW0BN-KAj_7rHe7aB-6" edge="1">
          <mxGeometry relative="1" as="geometry" />
        </mxCell>
        <mxCell id="evzxW0BN-KAj_7rHe7aB-0" value="Обсуждает&#xa;концепт&#xa;с лидами &#xa;разработки" style="points=[[0.25,0,0],[0.5,0,0],[0.75,0,0],[1,0.25,0],[1,0.5,0],[1,0.75,0],[0.75,1,0],[0.5,1,0],[0.25,1,0],[0,0.75,0],[0,0.5,0],[0,0.25,0]];shape=mxgraph.bpmn.task;rectStyle=rounded;size=10;taskMarker=abstract;" parent="aOeAr14Fo2HWEys6hwEa-1" vertex="1">
          <mxGeometry x="490" y="65" width="120" height="80" as="geometry" />
        </mxCell>
        <mxCell id="evzxW0BN-KAj_7rHe7aB-2" value="Концепт БП" style="shape=mxgraph.bpmn.data;labelPosition=center;verticalLabelPosition=bottom;align=center;verticalAlign=top;size=15;" parent="aOeAr14Fo2HWEys6hwEa-1" vertex="1">
          <mxGeometry x="180" y="75" width="40" height="60" as="geometry" />
        </mxCell>
        <mxCell id="evzxW0BN-KAj_7rHe7aB-3" value="" style="endArrow=none;dashed=1;html=1;entryX=1.029;entryY=0.488;entryDx=0;entryDy=0;entryPerimeter=0;exitX=0;exitY=0.5;exitDx=0;exitDy=0;exitPerimeter=0;" parent="aOeAr14Fo2HWEys6hwEa-1" target="evzxW0BN-KAj_7rHe7aB-2" edge="1">
          <mxGeometry width="50" height="50" relative="1" as="geometry">
            <mxPoint x="300" y="105" as="sourcePoint" />
            <mxPoint x="230" y="-165" as="targetPoint" />
          </mxGeometry>
        </mxCell>
        <mxCell id="evzxW0BN-KAj_7rHe7aB-4" value="Список исправлений" style="shape=mxgraph.bpmn.data;labelPosition=center;verticalLabelPosition=bottom;align=center;verticalAlign=top;size=15;" parent="aOeAr14Fo2HWEys6hwEa-1" vertex="1">
          <mxGeometry x="530" y="180" width="40" height="60" as="geometry" />
        </mxCell>
        <mxCell id="evzxW0BN-KAj_7rHe7aB-5" value="" style="endArrow=none;dashed=1;html=1;entryX=0.5;entryY=0;entryDx=0;entryDy=0;entryPerimeter=0;exitX=0.5;exitY=1;exitDx=0;exitDy=0;exitPerimeter=0;" parent="aOeAr14Fo2HWEys6hwEa-1" source="evzxW0BN-KAj_7rHe7aB-0" target="evzxW0BN-KAj_7rHe7aB-4" edge="1">
          <mxGeometry width="50" height="50" relative="1" as="geometry">
            <mxPoint x="550" y="280" as="sourcePoint" />
            <mxPoint x="580" y="-40" as="targetPoint" />
          </mxGeometry>
        </mxCell>
        <mxCell id="ATe_ofAdkQpUxEMS_vYz-5" style="edgeStyle=orthogonalEdgeStyle;rounded=0;orthogonalLoop=1;jettySize=auto;html=1;" parent="aOeAr14Fo2HWEys6hwEa-1" source="evzxW0BN-KAj_7rHe7aB-6" target="ATe_ofAdkQpUxEMS_vYz-4" edge="1">
          <mxGeometry relative="1" as="geometry" />
        </mxCell>
        <mxCell id="evzxW0BN-KAj_7rHe7aB-6" value="Готовит&#xa;БП с учётом&#xa;исправлений" style="points=[[0.25,0,0],[0.5,0,0],[0.75,0,0],[1,0.25,0],[1,0.5,0],[1,0.75,0],[0.75,1,0],[0.5,1,0],[0.25,1,0],[0,0.75,0],[0,0.5,0],[0,0.25,0]];shape=mxgraph.bpmn.task;rectStyle=rounded;size=10;taskMarker=abstract;" parent="aOeAr14Fo2HWEys6hwEa-1" vertex="1">
          <mxGeometry x="680" y="65" width="120" height="80" as="geometry" />
        </mxCell>
        <mxCell id="ATe_ofAdkQpUxEMS_vYz-2" value="БП для согласования" style="shape=mxgraph.bpmn.data;labelPosition=center;verticalLabelPosition=bottom;align=center;verticalAlign=top;size=15;" parent="aOeAr14Fo2HWEys6hwEa-1" vertex="1">
          <mxGeometry x="720" y="180" width="40" height="60" as="geometry" />
        </mxCell>
        <mxCell id="ATe_ofAdkQpUxEMS_vYz-3" value="" style="endArrow=none;dashed=1;html=1;entryX=0.5;entryY=0;entryDx=0;entryDy=0;entryPerimeter=0;exitX=0.5;exitY=1;exitDx=0;exitDy=0;exitPerimeter=0;" parent="aOeAr14Fo2HWEys6hwEa-1" target="ATe_ofAdkQpUxEMS_vYz-2" edge="1">
          <mxGeometry width="50" height="50" relative="1" as="geometry">
            <mxPoint x="740" y="145" as="sourcePoint" />
            <mxPoint x="750" y="-80" as="targetPoint" />
          </mxGeometry>
        </mxCell>
        <mxCell id="ATe_ofAdkQpUxEMS_vYz-6" style="edgeStyle=orthogonalEdgeStyle;rounded=0;orthogonalLoop=1;jettySize=auto;html=1;entryX=0.5;entryY=0;entryDx=0;entryDy=0;entryPerimeter=0;" parent="aOeAr14Fo2HWEys6hwEa-1" source="ATe_ofAdkQpUxEMS_vYz-4" target="evzxW0BN-KAj_7rHe7aB-0" edge="1">
          <mxGeometry relative="1" as="geometry">
            <Array as="points">
              <mxPoint x="885" y="45" />
              <mxPoint x="550" y="45" />
            </Array>
          </mxGeometry>
        </mxCell>
        <mxCell id="ATe_ofAdkQpUxEMS_vYz-7" value="Нет" style="edgeLabel;html=1;align=center;verticalAlign=middle;resizable=0;points=[];" parent="ATe_ofAdkQpUxEMS_vYz-6" vertex="1" connectable="0">
          <mxGeometry x="-0.9379" relative="1" as="geometry">
            <mxPoint as="offset" />
          </mxGeometry>
        </mxCell>
        <mxCell id="ATe_ofAdkQpUxEMS_vYz-4" value="БП согласована?" style="points=[[0.25,0.25,0],[0.5,0,0],[0.75,0.25,0],[1,0.5,0],[0.75,0.75,0],[0.5,1,0],[0.25,0.75,0],[0,0.5,0]];shape=mxgraph.bpmn.gateway2;html=1;verticalLabelPosition=bottom;labelBackgroundColor=#ffffff;verticalAlign=top;align=center;perimeter=rhombusPerimeter;outlineConnect=0;outline=none;symbol=none;gwType=exclusive;" parent="aOeAr14Fo2HWEys6hwEa-1" vertex="1">
          <mxGeometry x="860" y="80" width="50" height="50" as="geometry" />
        </mxCell>
        <mxCell id="ATe_ofAdkQpUxEMS_vYz-12" value="" style="points=[[0.145,0.145,0],[0.5,0,0],[0.855,0.145,0],[1,0.5,0],[0.855,0.855,0],[0.5,1,0],[0.145,0.855,0],[0,0.5,0]];shape=mxgraph.bpmn.event;html=1;verticalLabelPosition=bottom;labelBackgroundColor=#ffffff;verticalAlign=top;align=center;perimeter=ellipsePerimeter;outlineConnect=0;aspect=fixed;outline=catching;symbol=message;" parent="aOeAr14Fo2HWEys6hwEa-1" vertex="1">
          <mxGeometry x="860" y="190" width="50" height="50" as="geometry" />
        </mxCell>
        <mxCell id="ATe_ofAdkQpUxEMS_vYz-13" value="" style="edgeStyle=orthogonalEdgeStyle;rounded=0;orthogonalLoop=1;jettySize=auto;html=1;endArrow=none;" parent="aOeAr14Fo2HWEys6hwEa-1" source="ATe_ofAdkQpUxEMS_vYz-4" target="ATe_ofAdkQpUxEMS_vYz-12" edge="1">
          <mxGeometry relative="1" as="geometry">
            <mxPoint x="930" y="145" as="sourcePoint" />
            <mxPoint x="1171" y="185" as="targetPoint" />
          </mxGeometry>
        </mxCell>
        <mxCell id="ATe_ofAdkQpUxEMS_vYz-14" value="Да" style="edgeLabel;html=1;align=center;verticalAlign=middle;resizable=0;points=[];" parent="ATe_ofAdkQpUxEMS_vYz-13" vertex="1" connectable="0">
          <mxGeometry x="0.2543" y="-2" relative="1" as="geometry">
            <mxPoint as="offset" />
          </mxGeometry>
        </mxCell>
        <mxCell id="owvHvaCyCTiqcsduRf6z-0" value="Готовит концепт&#xa;решения" style="points=[[0.25,0,0],[0.5,0,0],[0.75,0,0],[1,0.25,0],[1,0.5,0],[1,0.75,0],[0.75,1,0],[0.5,1,0],[0.25,1,0],[0,0.75,0],[0,0.5,0],[0,0.25,0]];shape=mxgraph.bpmn.task;rectStyle=rounded;size=10;taskMarker=abstract;isLoopSub=1;" parent="aOeAr14Fo2HWEys6hwEa-1" vertex="1">
          <mxGeometry x="300" y="65" width="120" height="80" as="geometry" />
        </mxCell>
        <mxCell id="aOeAr14Fo2HWEys6hwEa-2" value="Руководитель проекта" style="swimlane;html=1;startSize=20;horizontal=0;" parent="aOeAr14Fo2HWEys6hwEa-0" vertex="1">
          <mxGeometry y="310" width="1900" height="300" as="geometry" />
        </mxCell>
        <mxCell id="RM7mfyshCncrPjD-y8S--2" style="edgeStyle=orthogonalEdgeStyle;rounded=0;orthogonalLoop=1;jettySize=auto;html=1;" parent="aOeAr14Fo2HWEys6hwEa-2" source="3skzhrA13qVScHNPEztn-1" target="RM7mfyshCncrPjD-y8S--1" edge="1">
          <mxGeometry relative="1" as="geometry" />
        </mxCell>
        <mxCell id="3skzhrA13qVScHNPEztn-1" value="" style="shape=mxgraph.bpmn.event;html=1;verticalLabelPosition=bottom;labelBackgroundColor=#ffffff;verticalAlign=top;align=center;perimeter=ellipsePerimeter;outlineConnect=0;aspect=fixed;outline=standard;symbol=general;" parent="aOeAr14Fo2HWEys6hwEa-2" vertex="1">
          <mxGeometry x="60" y="145" width="50" height="50" as="geometry" />
        </mxCell>
        <mxCell id="RM7mfyshCncrPjD-y8S--1" value="Создаёт задачи в JIra&#xa;по требованиям" style="points=[[0.25,0,0],[0.5,0,0],[0.75,0,0],[1,0.25,0],[1,0.5,0],[1,0.75,0],[0.75,1,0],[0.5,1,0],[0.25,1,0],[0,0.75,0],[0,0.5,0],[0,0.25,0]];shape=mxgraph.bpmn.task;rectStyle=rounded;size=10;taskMarker=abstract;isLoopStandard=1;isLoopSub=1;" parent="aOeAr14Fo2HWEys6hwEa-2" vertex="1">
          <mxGeometry x="170" y="130" width="120" height="80" as="geometry" />
        </mxCell>
        <mxCell id="fyrRUebLvFuzJPUe-t5V-0" value="Перечень задач по требованиям" style="shape=mxgraph.bpmn.data;labelPosition=center;verticalLabelPosition=bottom;align=center;verticalAlign=top;size=15;" parent="aOeAr14Fo2HWEys6hwEa-2" vertex="1">
          <mxGeometry x="210" y="30" width="40" height="60" as="geometry" />
        </mxCell>
        <mxCell id="fyrRUebLvFuzJPUe-t5V-1" value="" style="endArrow=none;dashed=1;html=1;entryX=0.5;entryY=1;entryDx=0;entryDy=0;entryPerimeter=0;exitX=0.5;exitY=0;exitDx=0;exitDy=0;exitPerimeter=0;" parent="aOeAr14Fo2HWEys6hwEa-2" target="fyrRUebLvFuzJPUe-t5V-0" edge="1">
          <mxGeometry width="50" height="50" relative="1" as="geometry">
            <mxPoint x="230" y="130" as="sourcePoint" />
            <mxPoint x="280" y="60" as="targetPoint" />
          </mxGeometry>
        </mxCell>
        <mxCell id="q4CLwZ0Vx1XOarC5H-9x-1" style="edgeStyle=orthogonalEdgeStyle;rounded=0;orthogonalLoop=1;jettySize=auto;html=1;" parent="aOeAr14Fo2HWEys6hwEa-2" source="ATe_ofAdkQpUxEMS_vYz-8" target="q4CLwZ0Vx1XOarC5H-9x-0" edge="1">
          <mxGeometry relative="1" as="geometry" />
        </mxCell>
        <mxCell id="ATe_ofAdkQpUxEMS_vYz-8" value="Договаривается&#xa;о встрече&#xa;с заказчиком" style="points=[[0.25,0,0],[0.5,0,0],[0.75,0,0],[1,0.25,0],[1,0.5,0],[1,0.75,0],[0.75,1,0],[0.5,1,0],[0.25,1,0],[0,0.75,0],[0,0.5,0],[0,0.25,0]];shape=mxgraph.bpmn.task;rectStyle=rounded;size=10;taskMarker=abstract;" parent="aOeAr14Fo2HWEys6hwEa-2" vertex="1">
          <mxGeometry x="825" y="130" width="120" height="80" as="geometry" />
        </mxCell>
        <mxCell id="q4CLwZ0Vx1XOarC5H-9x-3" style="edgeStyle=orthogonalEdgeStyle;rounded=0;orthogonalLoop=1;jettySize=auto;html=1;" parent="aOeAr14Fo2HWEys6hwEa-2" source="q4CLwZ0Vx1XOarC5H-9x-0" target="q4CLwZ0Vx1XOarC5H-9x-2" edge="1">
          <mxGeometry relative="1" as="geometry" />
        </mxCell>
        <mxCell id="q4CLwZ0Vx1XOarC5H-9x-0" value="Представляет&#xa;решение&#xa;заказчику" style="points=[[0.25,0,0],[0.5,0,0],[0.75,0,0],[1,0.25,0],[1,0.5,0],[1,0.75,0],[0.75,1,0],[0.5,1,0],[0.25,1,0],[0,0.75,0],[0,0.5,0],[0,0.25,0]];shape=mxgraph.bpmn.task;rectStyle=rounded;size=10;taskMarker=abstract;" parent="aOeAr14Fo2HWEys6hwEa-2" vertex="1">
          <mxGeometry x="990" y="130" width="120" height="80" as="geometry" />
        </mxCell>
        <mxCell id="q4CLwZ0Vx1XOarC5H-9x-2" value="БП согласована?" style="points=[[0.25,0.25,0],[0.5,0,0],[0.75,0.25,0],[1,0.5,0],[0.75,0.75,0],[0.5,1,0],[0.25,0.75,0],[0,0.5,0]];shape=mxgraph.bpmn.gateway2;html=1;verticalLabelPosition=bottom;labelBackgroundColor=#ffffff;verticalAlign=top;align=center;perimeter=rhombusPerimeter;outlineConnect=0;outline=none;symbol=none;gwType=exclusive;" parent="aOeAr14Fo2HWEys6hwEa-2" vertex="1">
          <mxGeometry x="1170" y="145" width="50" height="50" as="geometry" />
        </mxCell>
        <mxCell id="H3KqmhBNVF3RsmGUspC8-0" value="БП для согласования" style="shape=mxgraph.bpmn.data;labelPosition=center;verticalLabelPosition=bottom;align=center;verticalAlign=top;size=15;" parent="aOeAr14Fo2HWEys6hwEa-2" vertex="1">
          <mxGeometry x="1030" y="30" width="40" height="60" as="geometry" />
        </mxCell>
        <mxCell id="H3KqmhBNVF3RsmGUspC8-1" value="" style="endArrow=none;dashed=1;html=1;entryX=0.5;entryY=1;entryDx=0;entryDy=0;entryPerimeter=0;exitX=0.5;exitY=0;exitDx=0;exitDy=0;exitPerimeter=0;" parent="aOeAr14Fo2HWEys6hwEa-2" target="H3KqmhBNVF3RsmGUspC8-0" edge="1">
          <mxGeometry width="50" height="50" relative="1" as="geometry">
            <mxPoint x="1050" y="130" as="sourcePoint" />
            <mxPoint x="1080" y="-270" as="targetPoint" />
          </mxGeometry>
        </mxCell>
        <mxCell id="Y3cONrybDpQclOouv1O0-1" style="edgeStyle=orthogonalEdgeStyle;rounded=0;orthogonalLoop=1;jettySize=auto;html=1;entryX=0;entryY=0.5;entryDx=0;entryDy=0;entryPerimeter=0;" parent="aOeAr14Fo2HWEys6hwEa-2" source="4BvnjUiSYgF7PoxSkzyq-0" target="Y3cONrybDpQclOouv1O0-0" edge="1">
          <mxGeometry relative="1" as="geometry" />
        </mxCell>
        <mxCell id="4BvnjUiSYgF7PoxSkzyq-0" value="Определяет&#xa;перечень работ&#xa;по реализации БП" style="points=[[0.25,0,0],[0.5,0,0],[0.75,0,0],[1,0.25,0],[1,0.5,0],[1,0.75,0],[0.75,1,0],[0.5,1,0],[0.25,1,0],[0,0.75,0],[0,0.5,0],[0,0.25,0]];shape=mxgraph.bpmn.task;rectStyle=rounded;size=10;taskMarker=abstract;" parent="aOeAr14Fo2HWEys6hwEa-2" vertex="1">
          <mxGeometry x="1290" y="130" width="120" height="80" as="geometry" />
        </mxCell>
        <mxCell id="4BvnjUiSYgF7PoxSkzyq-1" style="edgeStyle=orthogonalEdgeStyle;rounded=0;orthogonalLoop=1;jettySize=auto;html=1;" parent="aOeAr14Fo2HWEys6hwEa-2" source="q4CLwZ0Vx1XOarC5H-9x-2" target="4BvnjUiSYgF7PoxSkzyq-0" edge="1">
          <mxGeometry relative="1" as="geometry" />
        </mxCell>
        <mxCell id="H3KqmhBNVF3RsmGUspC8-2" value="Да" style="edgeLabel;html=1;align=center;verticalAlign=middle;resizable=0;points=[];" parent="4BvnjUiSYgF7PoxSkzyq-1" vertex="1" connectable="0">
          <mxGeometry x="-0.8802" y="-1" relative="1" as="geometry">
            <mxPoint x="10" as="offset" />
          </mxGeometry>
        </mxCell>
        <mxCell id="Y3cONrybDpQclOouv1O0-3" style="edgeStyle=orthogonalEdgeStyle;rounded=0;orthogonalLoop=1;jettySize=auto;html=1;entryX=0;entryY=0.5;entryDx=0;entryDy=0;entryPerimeter=0;" parent="aOeAr14Fo2HWEys6hwEa-2" source="Y3cONrybDpQclOouv1O0-0" target="Y3cONrybDpQclOouv1O0-2" edge="1">
          <mxGeometry relative="1" as="geometry" />
        </mxCell>
        <mxCell id="Y3cONrybDpQclOouv1O0-0" value="Заводит и связывает&#xa;задачи в Jira" style="points=[[0.25,0,0],[0.5,0,0],[0.75,0,0],[1,0.25,0],[1,0.5,0],[1,0.75,0],[0.75,1,0],[0.5,1,0],[0.25,1,0],[0,0.75,0],[0,0.5,0],[0,0.25,0]];shape=mxgraph.bpmn.task;rectStyle=rounded;size=10;taskMarker=abstract;" parent="aOeAr14Fo2HWEys6hwEa-2" vertex="1">
          <mxGeometry x="1450" y="130" width="120" height="80" as="geometry" />
        </mxCell>
        <mxCell id="Y3cONrybDpQclOouv1O0-2" value="" style="points=[[0.145,0.145,0],[0.5,0,0],[0.855,0.145,0],[1,0.5,0],[0.855,0.855,0],[0.5,1,0],[0.145,0.855,0],[0,0.5,0]];shape=mxgraph.bpmn.event;html=1;verticalLabelPosition=bottom;labelBackgroundColor=#ffffff;verticalAlign=top;align=center;perimeter=ellipsePerimeter;outlineConnect=0;aspect=fixed;outline=end;symbol=terminate2;" parent="aOeAr14Fo2HWEys6hwEa-2" vertex="1">
          <mxGeometry x="1620" y="145" width="50" height="50" as="geometry" />
        </mxCell>
        <mxCell id="ATe_ofAdkQpUxEMS_vYz-9" style="edgeStyle=orthogonalEdgeStyle;rounded=0;orthogonalLoop=1;jettySize=auto;html=1;startArrow=none;" parent="aOeAr14Fo2HWEys6hwEa-0" source="ATe_ofAdkQpUxEMS_vYz-12" target="ATe_ofAdkQpUxEMS_vYz-8" edge="1">
          <mxGeometry relative="1" as="geometry" />
        </mxCell>
        <mxCell id="q4CLwZ0Vx1XOarC5H-9x-4" style="edgeStyle=orthogonalEdgeStyle;rounded=0;orthogonalLoop=1;jettySize=auto;html=1;entryX=0.5;entryY=0;entryDx=0;entryDy=0;entryPerimeter=0;" parent="aOeAr14Fo2HWEys6hwEa-0" source="q4CLwZ0Vx1XOarC5H-9x-2" edge="1">
          <mxGeometry relative="1" as="geometry">
            <mxPoint x="360" y="85" as="targetPoint" />
            <Array as="points">
              <mxPoint x="1195" y="40" />
              <mxPoint x="360" y="40" />
            </Array>
          </mxGeometry>
        </mxCell>
        <mxCell id="q4CLwZ0Vx1XOarC5H-9x-5" value="Нет" style="edgeLabel;html=1;align=center;verticalAlign=middle;resizable=0;points=[];" parent="q4CLwZ0Vx1XOarC5H-9x-4" vertex="1" connectable="0">
          <mxGeometry x="-0.9534" y="1" relative="1" as="geometry">
            <mxPoint as="offset" />
          </mxGeometry>
        </mxCell>
        <mxCell id="k01vYVpkwVyQyZhx3T5N-1" style="edgeStyle=orthogonalEdgeStyle;rounded=0;orthogonalLoop=1;jettySize=auto;html=1;entryX=0.5;entryY=1;entryDx=0;entryDy=0;entryPerimeter=0;" parent="aOeAr14Fo2HWEys6hwEa-0" source="RM7mfyshCncrPjD-y8S--1" edge="1">
          <mxGeometry relative="1" as="geometry">
            <mxPoint x="360" y="165" as="targetPoint" />
          </mxGeometry>
        </mxCell>
        <mxCell id="qbWWn7Ru-KNT3rHlMKnv-0" value="Перечень задач по реализации" style="shape=mxgraph.bpmn.data;labelPosition=center;verticalLabelPosition=bottom;align=center;verticalAlign=top;size=15;" parent="KUUUsiKI-zZ457EmI8FQ-1" vertex="1">
          <mxGeometry x="1510" y="360" width="40" height="60" as="geometry" />
        </mxCell>
        <mxCell id="qbWWn7Ru-KNT3rHlMKnv-1" value="" style="endArrow=none;dashed=1;html=1;entryX=0.5;entryY=1;entryDx=0;entryDy=0;entryPerimeter=0;exitX=0.5;exitY=0;exitDx=0;exitDy=0;exitPerimeter=0;" parent="KUUUsiKI-zZ457EmI8FQ-1" target="qbWWn7Ru-KNT3rHlMKnv-0" edge="1">
          <mxGeometry width="50" height="50" relative="1" as="geometry">
            <mxPoint x="1530" y="460" as="sourcePoint" />
            <mxPoint x="1560" y="60" as="targetPoint" />
          </mxGeometry>
        </mxCell>
      </root>
    </mxGraphModel>
  </diagram>
  <diagram id="StAwO10RkDKOABengu53" name="Постановки">
    <mxGraphModel dx="1382" dy="774" grid="1" gridSize="10" guides="1" tooltips="1" connect="1" arrows="1" fold="1" page="1" pageScale="1" pageWidth="827" pageHeight="1169" math="0" shadow="0">
      <root>
        <mxCell id="3eCxlQvMNiiKNohp_VMH-0" />
        <mxCell id="3eCxlQvMNiiKNohp_VMH-1" parent="3eCxlQvMNiiKNohp_VMH-0" />
      </root>
    </mxGraphModel>
  </diagram>
  <diagram id="wNTcsHOXockcDprhzUzM" name="Производство">
    <mxGraphModel dx="1248" dy="686" grid="1" gridSize="10" guides="1" tooltips="1" connect="1" arrows="1" fold="1" page="1" pageScale="1" pageWidth="827" pageHeight="1169" math="0" shadow="0">
      <root>
        <mxCell id="OOHPrA5ReISrItx1lvZl-0" />
        <mxCell id="OOHPrA5ReISrItx1lvZl-1" parent="OOHPrA5ReISrItx1lvZl-0" />
      </root>
    </mxGraphModel>
  </diagram>
  <diagram id="8a75TrIZOZULA6J6EW3w" name="Сдача работ">
    <mxGraphModel dx="1248" dy="686" grid="1" gridSize="10" guides="1" tooltips="1" connect="1" arrows="1" fold="1" page="1" pageScale="1" pageWidth="827" pageHeight="1169" math="0" shadow="0">
      <root>
        <mxCell id="hevCM2py3b_s0M9nJ75I-0" />
        <mxCell id="hevCM2py3b_s0M9nJ75I-1" parent="hevCM2py3b_s0M9nJ75I-0" />
      </root>
    </mxGraphModel>
  </diagram>
</mxfile>
